<?xml version="1.0" standalone="no"?><!DOCTYPE svg PUBLIC "-//W3C//DTD SVG 1.1//EN" "http://www.w3.org/Graphics/SVG/1.1/DTD/svg11.dtd"><svg t="1709275597521" class="icon" viewBox="0 0 1024 1024" version="1.1" xmlns="http://www.w3.org/2000/svg" p-id="5214" xmlns:xlink="http://www.w3.org/1999/xlink" width="48" height="48"><path d="M927 707V317c0-66-54-120-120-120H388.7c-27.7 0-54.1 12-72.3 32.9L117.2 459.1c-26.5 30.5-26.9 75.7-1 106.6l190.2 227c18.2 21.7 45.1 34.3 73.4 34.3H807c66 0 120-54 120-120z m-165.5 56H400.2c-24 0-46.7-10-62.1-27.3L177.2 554.8c-21.9-24.7-21.6-60.7 0.8-85l168.6-182.6c15.4-16.7 37.7-26.2 61.2-26.2h353.8c55.8 0 101.5 43 101.5 95.6v310.8C863 720 817.3 763 761.5 763z" fill="#333333" p-id="5215"></path><path d="M734.9 600.8l-86.6-86.6 86.6-86.6c13.1-13.1 13.1-34.6 0-47.8-13.1-13.1-34.6-13.1-47.8 0l-86.6 86.6-86.5-86.5c-13.1-13.1-34.6-13.1-47.8 0-13.1 13.1-13.1 34.6 0 47.8l86.6 86.6-86.6 86.6c-13.1 13.1-13.1 34.6 0 47.8 13.1 13.1 34.6 13.1 47.8 0l86.6-86.6 86.6 86.6c13.1 13.1 34.6 13.1 47.8 0 13-13.3 13-34.7-0.1-47.9z" fill="#333333" p-id="5216"></path></svg>