<?xml version="1.0" standalone="no"?><!DOCTYPE svg PUBLIC "-//W3C//DTD SVG 1.1//EN" "http://www.w3.org/Graphics/SVG/1.1/DTD/svg11.dtd"><svg t="1714196890602" class="icon" viewBox="0 0 1024 1024" version="1.1" xmlns="http://www.w3.org/2000/svg" p-id="13190" xmlns:xlink="http://www.w3.org/1999/xlink" width="256" height="256"><path d="M512 0c282.7648 0 512 229.2352 512 512S794.7648 1024 512 1024 0 794.7648 0 512 229.2352 0 512 0z m5.1712 306.7904c-64.768 0-117.7088 20.8384-159.3856 63.0784-39.9872 39.424-59.6992 88.4224-59.6992 147.5584 0 63.0784 19.712 113.2032 59.6992 151.5008 38.8608 37.1712 91.8016 55.7568 159.3856 55.7568 44.4928 0 84.48-9.0112 120.5248-26.4704 37.1712-18.0224 65.3312-43.9296 85.0432-77.7216h-39.424c-15.7696 22.528-36.608 39.9872-62.5152 52.9408-29.2864 14.08-64.2048 21.4016-103.6288 21.4016-55.1936 0-98.56-15.2064-130.0992-44.4928-33.792-30.976-50.1248-74.9056-50.1248-131.7888 0-51.8144 16.3328-95.1808 49.5616-128.9728 33.792-34.3552 76.5952-51.2512 128.4096-51.2512 48.4352 0 87.8592 14.08 117.1456 42.8032 27.0336 26.4704 40.5504 59.6992 40.5504 99.6864 0 34.9184-10.1376 65.3312-30.4128 91.2384-17.4592 21.9648-34.9184 33.2288-52.3776 33.2288-10.7008 0-15.7696-5.0688-15.7696-14.08 0-6.7584 2.2528-18.0224 6.7584-34.3552L620.8 409.856h-36.608l-8.448 31.5392c-9.0112-28.16-27.0336-42.24-54.0672-42.24-33.792 0-62.5152 14.6432-87.296 45.056-25.9072 30.4128-38.2976 67.0208-38.2976 108.6976 0 24.2176 7.3216 44.4928 21.9648 60.2624 14.6432 15.7696 33.792 24.2176 57.4464 24.2176 28.16 0 51.8144-12.9536 70.9632-38.2976 2.2528 24.7808 15.2064 37.1712 38.8608 37.1712 29.2864 0 56.32-15.7696 81.1008-46.7456 24.7808-32.6656 37.7344-68.7104 37.7344-109.2608 0-48.4352-15.7696-88.4224-47.3088-120.5248-34.3552-35.4816-81.1008-52.9408-139.6736-52.9408z m10.7008 127.8464c11.264 0 20.2752 4.5056 27.5968 13.5168a40.192 40.192 0 0 1 9.5744 26.4704c0 3.3792-2.2528 12.3904-5.632 27.0336l-12.3904 46.1824c-4.5056 14.6432-13.5168 28.16-27.0336 39.424-13.5168 11.264-27.5968 16.896-41.6768 16.896-14.08 0-24.7808-4.5056-32.1024-13.5168-7.3216-9.0112-10.7008-20.8384-10.7008-36.0448 0-33.2288 9.5744-61.3888 28.7232-85.0432 18.0224-23.6544 39.424-34.9184 63.6416-34.9184z" fill="#2c2c2c" p-id="13191"></path></svg>