<?xml version="1.0" encoding="UTF-8"?>
<svg width="30px" height="30px" viewBox="0 0 30 30" version="1.1" xmlns="http://www.w3.org/2000/svg" xmlns:xlink="http://www.w3.org/1999/xlink">
    <title>扔瓶子-更多</title>
    <defs>
        <polygon id="path-1" points="0 0 10 0 10 15 0 15"></polygon>
    </defs>
    <g id="扔瓶子-更多" stroke="none" stroke-width="1" fill="none" fill-rule="evenodd">
        <g id="编组备份-5" transform="translate(15.000000, 14.500000) scale(-1, 1) translate(-15.000000, -14.500000) translate(10.000000, 7.000000)">
            <mask id="mask-2" fill="white">
                <use xlink:href="#path-1"></use>
            </mask>
            <g id="Clip-2"></g>
            <path d="M2.58642394,7.50040852 L9.68619411,1.53659467 C10.104602,1.18444704 10.104602,0.614601553 9.68619411,0.263634108 C9.26768178,-0.0878780359 8.58882679,-0.0878780359 8.17041893,0.263634108 L0.313335771,6.86410981 C-0.104445257,7.21562195 -0.104445257,7.78573979 0.313335771,8.13616254 L8.17041893,14.7363659 C8.38030192,14.912122 8.65453928,15 8.92888111,15 C9.20322294,15 9.47756477,14.912122 9.68619411,14.7358212 C10.104602,14.3842183 10.104602,13.8151898 9.68619411,13.4636777 L2.58642394,7.50040852 Z" id="Fill-1" fill="#D6D6D6" mask="url(#mask-2)"></path>
        </g>
    </g>
</svg>