<?xml version="1.0" encoding="UTF-8"?>
<svg width="96px" height="104px" viewBox="0 0 96 104" version="1.1" xmlns="http://www.w3.org/2000/svg" xmlns:xlink="http://www.w3.org/1999/xlink">
    <title>扔瓶子</title>
    <g id="扔瓶子" stroke="none" stroke-width="1" fill="none" fill-rule="evenodd">
        <g id="瓶子" transform="translate(0.000000, -0.000000)" fill="#F55850" fill-rule="nonzero">
            <path d="M62.2871044,88 C56.2864359,88 49.5661514,86.7544277 42.1494644,84.2632831 C32.8060637,81.1141003 25.4358035,80.091791 19.632449,81.125851 C17.4736012,81.5136235 14.9897654,83.2292231 13.3764329,84.709809 C11.8211339,86.1433922 9.40693844,86.0258854 7.99091995,84.451294 C6.57490146,82.8767026 6.69096854,80.4325608 8.24626754,78.9989776 C9.743533,77.6241478 13.7130275,74.3457075 18.3092842,73.5231597 C25.4822303,72.2540861 33.8274541,73.3351488 44.5520532,76.9426082 C56.7971311,81.0670976 66.929788,81.349114 73.8473865,77.7769066 C79.8364484,74.6864772 81.5194212,69.7394401 81.5426346,69.6924374 C82.1810036,67.6595694 84.3282447,66.5432546 86.3362054,67.1777914 C88.344166,67.8240789 89.4584101,69.9979551 88.8200411,72.0308231 C88.7155807,72.3598422 86.2201383,80.0682896 77.3177925,84.6510556 C72.9884901,86.8836852 67.9627851,88 62.2871044,88 L62.2871044,88 Z" id="路径"></path>
            <path d="M3.78130147,104 C3.38951902,104 2.98621355,103.942315 2.5944311,103.803872 C0.612472815,103.146267 -0.470690434,101.000396 0.197644337,99.0160424 C1.97218838,93.6744397 13.783277,81.7798557 46.6814799,90.6286878 C82.0456077,100.158199 88.394788,84.2141498 88.6482943,83.5334704 C89.3627211,81.5952647 91.5060016,80.5569402 93.4649139,81.2491565 C95.4123031,81.9413728 96.4608973,84.0410957 95.8040855,86.0023753 C95.4814412,86.9714782 87.4038089,109.445435 44.7110446,97.954644 C17.4015032,90.594077 8.19461556,98.9468208 7.38800463,101.404189 C6.846423,102.996286 5.3714773,104 3.78130147,104 Z M68.7480504,75.111505 C68.5291131,75.111505 68.3101759,75.0884311 68.0912386,75.0538203 C66.0286192,74.6961752 64.6573806,72.7233587 65.0145941,70.6697836 L68.4945441,50.8493225 C68.471498,50.8493225 68.9554646,43.1080365 63.4359412,42.1389337 L59.7024849,41.4813282 L65.1989623,10.170076 L61.523121,9.52400744 C59.4605017,9.16636234 58.0892631,7.19354579 58.4464765,5.13997066 C58.8036899,3.0748586 60.7510791,1.69042594 62.8252215,2.05960798 L73.9679754,4.02088759 L68.3908369,35.839765 C75.0741847,39.1393296 76.3647621,47.3536301 76.0075487,51.8184254 L72.4699836,71.9734576 C72.1473393,73.8193679 70.5456404,75.111505 68.7480504,75.111505 Z" id="形状"></path>
            <path d="M37.3118813,48.830946 C36.9789538,48.830946 36.6345461,48.7849767 36.3016187,48.693038 C34.3040541,48.1414057 33.1215877,46.0727848 33.67264,44.0731179 C34.8436261,39.7749833 38.8502356,32.5118254 46.2205603,31.6958694 L51.7770044,0 L62.8784123,1.95369753 C64.9333782,2.30996003 66.2995287,4.2751499 65.9436408,6.32078614 C65.5877528,8.37791472 63.6361092,9.745503 61.5811433,9.38924051 L57.9189415,8.74566955 L52.4428592,39.9358761 L48.7232562,39.2808128 C43.2356936,38.338441 41.0429646,45.7624917 40.9511226,46.0842771 C40.4689518,47.7391739 38.9535579,48.830946 37.3118813,48.830946 L37.3118813,48.830946 Z M33.7759623,69 C33.5578374,69 33.3397126,68.9770153 33.1215877,68.9425383 C31.0666218,68.5862758 29.7004713,66.6210859 30.0563592,64.5754497 L30.9518192,59.4498668 C31.3077072,57.3927382 33.2478705,56.0136576 35.3143167,56.3814124 C37.3692826,56.7376749 38.7354331,58.7028648 38.3795451,60.748501 L37.4840851,65.8740839 C37.1626379,67.7013658 35.5783626,69 33.7759623,69 Z" id="形状"></path>
        </g>
    </g>
</svg>