<?xml version="1.0" encoding="UTF-8"?>
<svg width="50px" height="50px" viewBox="0 0 50 50" version="1.1" xmlns="http://www.w3.org/2000/svg" xmlns:xlink="http://www.w3.org/1999/xlink">
    <title>漂流瓶</title>
    <defs>
        <linearGradient x1="97.3633756%" y1="88.5565322%" x2="-7.63278329e-15%" y2="14.9502754%" id="linearGradient-1">
            <stop stop-color="#FF7871" offset="0%"></stop>
            <stop stop-color="#FFE4A6" offset="100%"></stop>
        </linearGradient>
        <circle id="path-2" cx="25" cy="25" r="25"></circle>
    </defs>
    <g id="漂流瓶" stroke="none" stroke-width="1" fill="none" fill-rule="evenodd">
        <g id="编组-3备份">
            <g id="路径">
                <mask id="mask-3" fill="white">
                    <use xlink:href="#path-2"></use>
                </mask>
                <use id="蒙版" fill="url(#linearGradient-1)" opacity="0.8" xlink:href="#path-2"></use>
                <path d="M19,35.3 C19,33.2553015 19.6316008,31.2657588 20.8,29.63 L24.4,24.59 C24.7894664,24.0447471 25,23.3815662 25,22.7 L25,8 L31,8 L31,22.7 C31,23.3815662 31.2105336,24.0447471 31.6,24.59 L35.2,29.63 C36.3683992,31.2657588 37,33.2553015 37,35.3 L37,47.9 C37,49.059798 36.1045695,50 35,50 L21,50 C19.8954305,50 19,49.059798 19,47.9 L19,35.3 Z" fill="#FFFFFF" fill-rule="nonzero" mask="url(#mask-3)" transform="translate(28.000000, 29.000000) rotate(-30.000000) translate(-28.000000, -29.000000) "></path>
            </g>
            <g id="编组-3备份-7" opacity="0.6" transform="translate(9.500000, 31.000000)" fill="#FFFFFF">
                <rect id="矩形" x="2.8" y="0" width="2.4" height="8" rx="1.2"></rect>
                <path d="M4,7.27418126e-13 C4.6627417,7.27296382e-13 5.2,0.5372583 5.2,1.2 L5.2,6.8 C5.2,7.4627417 4.6627417,8 4,8 C3.3372583,8 2.8,7.4627417 2.8,6.8 L2.8,1.2 C2.8,0.5372583 3.3372583,7.27539869e-13 4,7.27418126e-13 Z" id="矩形备份" transform="translate(4.000000, 4.000000) rotate(-90.000000) translate(-4.000000, -4.000000) "></path>
            </g>
            <circle id="椭圆形备份-7" stroke="#FFFFFF" stroke-width="2" opacity="0.6" cx="37" cy="14" r="2"></circle>
        </g>
    </g>
</svg>