<?xml version="1.0" encoding="UTF-8"?>
<svg width="22px" height="24px" viewBox="0 0 22 24" version="1.1" xmlns="http://www.w3.org/2000/svg" xmlns:xlink="http://www.w3.org/1999/xlink">
    <title>剧情-未选</title>
    <g id="页面-1" stroke="none" stroke-width="1" fill="none" fill-rule="evenodd">
        <g id="首页" transform="translate(-222.000000, -743.000000)" fill-rule="nonzero" stroke="#333333" stroke-width="1.3">
            <g id="剧情-未选" transform="translate(223.000000, 744.000000)">
                <path d="M0.752582601,0 C-1.12491387,9.77789937 0.00594572462,18.4754743 10.0000186,22 C19.9941247,18.4754743 21.1249179,9.77789937 19.2473883,0 C13.2079713,1.08267879 6.79206592,1.03290542 0.752582601,0 L0.752582601,0 Z M5.28903309,13.3768696 L15.0165235,13.3768696 C15.0165235,18.4284532 5.28903309,18.4284532 5.28903309,13.3768696 L5.28903309,13.3768696 Z M8.20348279,7.84035198 C6.10853121,8.10579895 4.46770931,7.73622911 3.23945796,6.78605827 C4.98826057,2.91607016 8.40158571,5.51509616 8.20348279,7.84035198 L8.20348279,7.84035198 Z M12.0665228,7.84035198 C11.8688846,5.51509616 15.2822097,2.91607016 17.0305808,6.78605827 C15.8032921,7.73622911 14.1614412,8.10579895 12.0665228,7.84035198 L12.0665228,7.84035198 Z" id="形状"></path>
            </g>
        </g>
    </g>
</svg>