<?xml version="1.0" encoding="UTF-8"?>
<svg width="30px" height="30px" viewBox="0 0 30 30" version="1.1" xmlns="http://www.w3.org/2000/svg" xmlns:xlink="http://www.w3.org/1999/xlink">
    <title>形状备份</title>
    <defs>
        <rect id="path-1" x="0" y="0" width="30" height="30"></rect>
    </defs>
    <g id="页面-1" stroke="none" stroke-width="1" fill="none" fill-rule="evenodd">
        <g id="剧情社区" transform="translate(-218.000000, -740.000000)">
            <g id="形状备份" transform="translate(218.000000, 740.000000)">
                <mask id="mask-2" fill="white">
                    <use xlink:href="#path-1"></use>
                </mask>
                <g id="蒙版"></g>
                <path d="M4.79021173,3 C2.81884044,13.2667943 4.00624301,22.399248 14.5000195,26.1 C24.9938309,22.399248 26.1811638,13.2667943 24.2097577,3 C17.8683699,4.13681273 11.1316692,4.08455069 4.79021173,3 L4.79021173,3 Z M9.55348475,17.0457131 L19.7673496,17.0457131 C19.7673496,22.3498759 9.55348475,22.3498759 9.55348475,17.0457131 L9.55348475,17.0457131 Z M12.6136569,11.2323696 C10.4139578,11.5110889 8.69109477,11.1230406 7.40143086,10.1253612 C9.23767359,6.06187367 12.821665,8.79085097 12.6136569,11.2323696 L12.6136569,11.2323696 Z M16.6698489,11.2323696 C16.4623288,8.79085097 20.0463202,6.06187367 21.8821099,10.1253612 C20.5934567,11.1230406 18.8695132,11.5110889 16.6698489,11.2323696 L16.6698489,11.2323696 Z" fill="#F55850" fill-rule="nonzero" mask="url(#mask-2)"></path>
            </g>
        </g>
    </g>
</svg>