<?xml version="1.0" encoding="UTF-8"?>
<svg width="30px" height="30px" viewBox="0 0 30 30" version="1.1" xmlns="http://www.w3.org/2000/svg" xmlns:xlink="http://www.w3.org/1999/xlink">
    <title>选择剧情-未收藏</title>
    <g id="选择剧情-未收藏" stroke="none" stroke-width="1" fill="none" fill-rule="evenodd">
        <g id="shoucang" transform="translate(5.000000, 5.000000)" fill="#FFB648" fill-rule="nonzero">
            <path d="M5.85186203,19.2338833 C5.01010079,19.7568903 3.90933611,19.4863866 3.39807929,18.6348753 C3.15571453,18.2305795 3.08038731,17.7477678 3.18807649,17.2888573 L4.27759102,12.6425453 C4.30402723,12.5323581 4.26782634,12.4165537 4.18333977,12.3410413 L0.61704218,9.23349984 C-0.123717697,8.58849123 -0.209218838,7.46047618 0.424039597,6.70846615 C0.728388513,6.34608572 1.1649251,6.1203468 1.63655577,6.08145779 L6.31686823,5.70020269 C6.41886959,5.69170257 6.5101208,5.62445168 6.55187138,5.52220031 L8.35514543,1.11189147 C8.73090044,0.19312921 9.77591439,-0.245626645 10.6876766,0.140128488 C11.1225142,0.324926385 11.4665634,0.674278334 11.6446893,1.11189147 L13.4479634,5.52195032 C13.4897139,5.62445168 13.5809652,5.69195258 13.6829665,5.70020269 L18.363779,6.08170778 C19.3452921,6.16170883 20.0720518,7.02997044 19.9943008,8.0157336 C19.9577772,8.48615293 19.7383312,8.92351906 19.3830426,9.23399984 L15.816745,12.3415413 C15.7337439,12.4137923 15.6962434,12.5307939 15.7224937,12.6427953 L16.8120083,17.2891073 C17.0375113,18.2503702 16.4520035,19.2188831 15.4962407,19.4506362 C15.0359752,19.5623419 14.5501254,19.4843248 14.1479727,19.2341333 L10.1406693,16.7441001 C10.0546091,16.6900813 9.94522571,16.6900813 9.8591655,16.7441001 L5.85161202,19.2341333 L5.85186203,19.2338833 Z M10.9326798,15.4698331 L14.9399833,17.9598663 C15.0014841,17.9978668 15.0739851,18.009617 15.142736,17.9928667 C15.292988,17.9563663 15.3902393,17.7953641 15.3519888,17.6313619 L14.2624743,12.9850499 C14.1090278,12.3336664 14.3279298,11.6508 14.8314818,11.2100262 L18.3977794,8.10273476 C18.4560302,8.05198409 18.4927807,7.9782331 18.4992808,7.89773202 C18.512531,7.73047979 18.3940294,7.5889779 18.2420274,7.57672773 L13.5612149,7.19497264 C12.8923831,7.13883184 12.3119103,6.71145078 12.0596949,6.08945789 L10.2564208,1.67939904 C10.2282252,1.60854813 10.1731263,1.55174144 10.1031688,1.52139694 C9.96491692,1.46289615 9.8049148,1.53014704 9.74391397,1.67939904 L7.94038989,6.08945789 C7.68817446,6.71145078 7.10770166,7.13883184 6.43886985,7.19497264 L1.7583074,7.57672773 C1.68537707,7.58307703 1.61802809,7.61837221 1.5713049,7.67472903 C1.46532951,7.80271587 1.4791133,7.99149862 1.60255533,8.10273476 L5.16885292,11.2102762 C5.67240501,11.65105 5.89130697,12.3339164 5.73786051,12.9852999 L4.64834598,17.6313619 C4.62972163,17.7102139 4.64244998,17.7932171 4.68384643,17.862865 C4.76559753,17.9986168 4.93184974,18.0393674 5.06035146,17.9596163 L9.06790495,15.4698331 C9.63874745,15.1146135 10.3618373,15.1146135 10.9326798,15.4698331 Z" id="形状"></path>
        </g>
    </g>
</svg>