<?xml version="1.0" encoding="UTF-8"?>
<svg width="30px" height="30px" viewBox="0 0 30 30" version="1.1" xmlns="http://www.w3.org/2000/svg" xmlns:xlink="http://www.w3.org/1999/xlink">
    <title>选择剧情-已收藏</title>
    <g id="选择剧情-已收藏" stroke="none" stroke-width="1" fill="none" fill-rule="evenodd">
        <g id="shoucang-2" transform="translate(5.000000, 5.000000)" fill="#FFB648" fill-rule="nonzero">
            <path d="M5.85186203,19.2338833 C5.01010079,19.7568903 3.90933611,19.4863866 3.39807929,18.6348753 C3.15571453,18.2305795 3.08038731,17.7477678 3.18807649,17.2888573 L4.27759102,12.6425453 C4.30402723,12.5323581 4.26782634,12.4165537 4.18333977,12.3410413 L0.61704218,9.23349984 C-0.123717697,8.58849123 -0.209218838,7.46047618 0.424039597,6.70846615 C0.728388513,6.34608572 1.1649251,6.1203468 1.63655577,6.08145779 L6.31686823,5.70020269 C6.41886959,5.69170257 6.5101208,5.62445168 6.55187138,5.52220031 L8.35514543,1.11189147 C8.73090044,0.19312921 9.77591439,-0.245626645 10.6876766,0.140128488 C11.1225142,0.324926385 11.4665634,0.674278334 11.6446893,1.11189147 L13.4479634,5.52195032 C13.4897139,5.62445168 13.5809652,5.69195258 13.6829665,5.70020269 L18.363779,6.08170778 C19.3452921,6.16170883 20.0720518,7.02997044 19.9943008,8.0157336 C19.9577772,8.48615293 19.7383312,8.92351906 19.3830426,9.23399984 L15.816745,12.3415413 C15.7337439,12.4137923 15.6962434,12.5307939 15.7224937,12.6427953 L16.8120083,17.2891073 C17.0375113,18.2503702 16.4520035,19.2188831 15.4962407,19.4506362 C15.0359752,19.5623419 14.5501254,19.4843248 14.1479727,19.2341333 L10.1406693,16.7441001 C10.0546091,16.6900813 9.94522571,16.6900813 9.8591655,16.7441001 L5.85161202,19.2341333 L5.85186203,19.2338833 Z" id="路径"></path>
        </g>
    </g>
</svg>