<?xml version="1.0" encoding="UTF-8"?>
<svg width="21px" height="22px" viewBox="0 0 21 22" version="1.1" xmlns="http://www.w3.org/2000/svg" xmlns:xlink="http://www.w3.org/1999/xlink">
    <title>首页-未选</title>
    <g id="页面-1" stroke="none" stroke-width="1" fill="none" fill-rule="evenodd">
        <g id="消息-空状态" transform="translate(-37.000000, -744.000000)" fill-rule="nonzero">
            <g id="首页-未选" transform="translate(37.000000, 744.000000)">
                <path d="M9.30665216,0.428989561 L0.618130417,7.62504092 C0.225106551,7.95050373 0,8.41880817 0,8.91081544 L0,20.285634 C0,21.2324522 0.817566977,22 1.82608694,22 L19.1739131,22 C20.182433,22 21,21.2324522 21,20.285634 L21,8.90952966 C21,8.41860669 20.7757324,7.95125732 20.3841522,7.62589812 L11.7248478,0.430703935 C11.0348303,-0.142750301 9.99782162,-0.143669285 9.30665216,0.428560961 L9.30665216,0.428989561 Z M1.82608694,8.91081544 L10.5146087,1.7139069 L19.1739131,8.90952966 L19.1739131,20.285634 L1.82608694,20.285634 L1.82608694,8.91081544 Z" id="形状" fill="#444444"></path>
                <path d="M11.3076923,12.8666667 L11.3076923,18.5 L9.69230769,18.5 L9.69230769,12.8666667 C9.69230769,12.5570365 9.84625296,12.2709264 10.0961538,12.1161113 C10.3460547,11.9612962 10.6539453,11.9612962 10.9038462,12.1161113 C11.153747,12.2709264 11.3076923,12.5570365 11.3076923,12.8666667 Z" id="路径" fill="#333333"></path>
            </g>
        </g>
    </g>
</svg>