<?xml version="1.0" encoding="UTF-8"?>
<svg width="30px" height="30px" viewBox="0 0 30 30" version="1.1" xmlns="http://www.w3.org/2000/svg" xmlns:xlink="http://www.w3.org/1999/xlink">
    <title>主页-选中</title>
    <g id="主页-选中" stroke="none" stroke-width="1" fill="none" fill-rule="evenodd">
        <path d="M13.3066522,4.42898956 L4.61813042,11.6250409 C4.22510655,11.9505037 4,12.4188082 4,12.9108154 L4,24.285634 C4,25.2324522 4.81756698,26 5.82608694,26 L23.1739131,26 C24.182433,26 25,25.2324522 25,24.285634 L25,12.9095297 C25,12.4186067 24.7757324,11.9512573 24.3841522,11.6258981 L15.7248478,4.43070394 C15.0348303,3.8572497 13.9978216,3.85633072 13.3066522,4.42856096 L13.3066522,4.42898956 Z" id="路径" fill="#F55850" fill-rule="nonzero"></path>
        <path d="M15.3076923,16.8666667 L15.3076923,22.5 L13.6923077,22.5 L13.6923077,16.8666667 C13.6923077,16.5570365 13.846253,16.2709264 14.0961538,16.1161113 C14.3460547,15.9612962 14.6539453,15.9612962 14.9038462,16.1161113 C15.153747,16.2709264 15.3076923,16.5570365 15.3076923,16.8666667 Z" id="路径" fill="#FFFFFF" fill-rule="nonzero"></path>
    </g>
</svg>