<?xml version="1.0" encoding="UTF-8"?>
<svg width="30px" height="30px" viewBox="0 0 30 30" version="1.1" xmlns="http://www.w3.org/2000/svg" xmlns:xlink="http://www.w3.org/1999/xlink">
    <title>私聊</title>
    <g id="私聊" stroke="none" stroke-width="1" fill="none" fill-rule="evenodd">
        <g id="动态-评论备份-4" transform="translate(7.499993, 7.500000)" fill="#333333">
            <path d="M4.98393251,10.5288914 C4.74264316,10.3332319 4.70574326,9.97899291 4.90140273,9.73770357 C5.09715221,9.49641422 5.45139127,9.45951432 5.69268063,9.65517379 C5.69619062,9.65805378 5.69970061,9.66102377 5.7032106,9.66399377 C6.20747926,10.0842026 6.84350756,10.313792 7.49996581,10.312532 C8.16596404,10.312532 8.79506236,10.0809626 9.29627103,9.66417377 C9.53513039,9.46554431 9.88981945,9.49821422 10.0884489,9.73707357 C10.2870784,9.97593292 10.2544085,10.330622 10.0154591,10.5292514 C9.30923099,11.1173098 8.41895336,11.4386989 7.49996581,11.4375326 C6.58070826,11.4387889 5.69025063,11.1172198 4.98393251,10.5288914 Z M2.41758935,11.772958 L2.11429016,12.885715 L3.22704719,12.5824158 C3.37248681,12.542636 3.52782639,12.5629759 3.65814605,12.6388457 C3.84813554,12.7490054 4.03767504,12.8600651 4.22676453,12.9718448 C5.2155019,13.5647632 6.34715888,13.8770623 7.49996581,13.8750026 C11.0208464,13.8750026 13.8750088,11.0209201 13.8750088,7.50003964 C13.8750088,3.9791592 11.0208464,1.12499695 7.49996581,1.12499695 C3.97908519,1.12499695 1.12501279,3.9791592 1.12501279,7.50003964 C1.12501279,8.56500675 1.3860121,9.59100396 1.87786079,10.5082815 C1.94311061,10.6297811 2.10502018,10.9095004 2.35890951,11.3385292 C2.4364893,11.4693889 2.45763924,11.6261684 2.41758935,11.772958 Z M1.26973241,11.7063582 C1.07623292,11.3778591 0.949513262,11.1575397 0.886513429,11.04 C0.302864984,9.95145299 -0.00178420435,8.73519629 7.8606681e-06,7.50003964 C7.8606681e-06,3.35798088 3.35790685,0 7.49996581,0 C11.6420248,0 15.0000079,3.35798088 15.0000079,7.50003964 C15.0000079,11.6420984 11.6420248,15 7.49996581,15 C6.14330943,15.0020593 4.81167297,14.6343203 3.64815607,13.9364622 C3.53097638,13.8670724 3.4134367,13.7981325 3.29571701,13.7297327 L1.4604419,14.2303114 C1.04041302,14.3447011 0.655304045,13.9594121 0.76987374,13.5395632 L1.26973241,11.7063582 Z" id="Fill-1"></path>
        </g>
    </g>
</svg>