<?xml version="1.0" encoding="UTF-8"?>
<svg width="30px" height="30px" viewBox="0 0 30 30" version="1.1" xmlns="http://www.w3.org/2000/svg" xmlns:xlink="http://www.w3.org/1999/xlink">
    <title>剧情社区-已点赞</title>
    <g id="剧情社区-已点赞" stroke="none" stroke-width="1" fill="none" fill-rule="evenodd">
        <path d="M14.9997787,22.0833333 C14.592446,22.0833333 14.2085729,21.9245826 13.9183166,21.6363276 L8.11695239,15.8607591 C7.18211233,14.9370459 6.66666667,13.7055043 6.66666667,12.3945303 C6.66666667,11.0828736 7.18277628,9.85087671 8.11960818,8.92500137 C9.05079652,8.00584021 10.2874013,7.5 11.6010243,7.5 C12.7901567,7.5 13.8228186,7.91366235 14.7503552,8.76363322 L14.7636342,8.76363322 L14.9905941,8.99453306 L15.1416424,8.82975091 C16.074712,7.93517052 17.1411246,7.5 18.3989757,7.5 C19.7125987,7.5 20.9488715,8.00584021 21.8792852,8.92454617 C22.8308347,9.8596393 23.3333333,11.0594308 23.3333333,12.3945303 C23.3333333,13.7066423 22.8175557,14.9386391 21.8811664,15.8630351 L16.0820154,21.6359862 C15.7914271,21.9245826 15.407222,22.0833333 14.9997787,22.0833333" id="路径备份" fill="#F55850"></path>
    </g>
</svg>