<?xml version="1.0" encoding="UTF-8"?>
<svg width="30px" height="30px" viewBox="0 0 30 30" version="1.1" xmlns="http://www.w3.org/2000/svg" xmlns:xlink="http://www.w3.org/1999/xlink">
    <title>剧情社区-未点赞</title>
    <g id="剧情社区-未点赞" stroke="none" stroke-width="1" fill="none" fill-rule="evenodd">
        <g id="动态-点赞-未选备份-3" transform="translate(6.666667, 7.500000)" fill="#333333">
            <path d="M4.93435759,1.16053058 C3.91342549,1.16053058 2.9543513,1.55188817 2.23429872,2.26211285 C1.52121759,2.96676135 1.12849182,3.90174068 1.12849182,4.89464413 C1.12849182,5.88697857 1.52088562,6.8212751 2.23352411,7.525127 L8.03599488,13.3018335 C8.19025234,13.4552357 8.47608235,13.4556909 8.63111442,13.3014921 L14.4312614,7.527403 C15.1454491,6.8220717 15.5381748,5.88777517 15.5381748,4.89453033 C15.5381748,3.88398791 15.1557403,2.97393074 14.4328106,2.26290945 L14.431704,2.26211285 C13.7119834,1.55188817 12.7535732,1.16053058 11.7323091,1.16053058 C10.7496647,1.16053058 9.95027023,1.49180186 9.21959446,2.20282315 L8.34672297,3.28631125 L7.60796916,2.4242776 L7.45614617,2.25938166 L7.29867963,2.09892391 C6.58781167,1.45971031 5.83113124,1.16053058 4.93435759,1.16053058 M8.33311202,14.5833333 C7.92577937,14.5833333 7.54190624,14.4245826 7.25164991,14.1363276 L1.45028572,8.36075909 C0.515445665,7.43704594 -1.77635684e-15,6.20550427 -1.77635684e-15,4.89453033 C-1.77635684e-15,3.58287358 0.516109614,2.35087671 1.45294151,1.42500137 C2.38412985,0.505840207 3.62073468,0 4.93435759,0 C6.12349007,0 7.15615193,0.413662351 8.08368855,1.26363322 L8.09696752,1.26363322 L8.32392739,1.49453306 L8.47497577,1.32975091 C9.40804529,0.435170518 10.4744579,0 11.7323091,0 C13.045932,0 14.2822048,0.505840207 15.2126186,1.42454617 C16.164168,2.3596393 16.6666667,3.55943082 16.6666667,4.89453033 C16.6666667,6.20664227 16.150889,7.43863914 15.2144998,8.36303509 L9.41534873,14.1359862 C9.12476043,14.4245826 8.74055533,14.5833333 8.33311202,14.5833333" id="Fill-1"></path>
        </g>
    </g>
</svg>