<?xml version="1.0" encoding="UTF-8"?>
<svg width="34px" height="34px" viewBox="0 0 34 34" version="1.1" xmlns="http://www.w3.org/2000/svg" xmlns:xlink="http://www.w3.org/1999/xlink">
    <title>举报</title>
    <g id="页面-1" stroke="none" stroke-width="1" fill="none" fill-rule="evenodd">
        <g id="单聊-延展功能" transform="translate(-264.000000, -468.000000)">
            <g id="举报" transform="translate(264.000000, 468.000000)">
                <rect id="矩形备份-10" x="0" y="0" width="34" height="34"></rect>
                <g id="huifu" transform="translate(7.000000, 7.000000)" fill="#333333" fill-rule="nonzero">
                    <path d="M0.833333333,20 C0.372222222,20 0,19.6171429 0,19.1428571 L0,2.57142857 C0,1.15428571 1.12222222,0 2.5,0 L17.5,0 C18.8777778,0 20,1.15428571 20,2.57142857 L20,14.2857143 C20,15.7028571 18.8777778,16.8571429 17.5,16.8571429 L5.58333333,16.8571429 C5.12222222,16.8571429 4.75,16.4742857 4.75,16 C4.75,15.5257143 5.12222222,15.1428571 5.58333333,15.1428571 L17.5,15.1428571 C17.9583333,15.1428571 18.3333333,14.7571429 18.3333333,14.2857143 L18.3333333,2.57142857 C18.3333333,2.1 17.9583333,1.71428571 17.5,1.71428571 L2.5,1.71428571 C2.04166667,1.71428571 1.66666667,2.1 1.66666667,2.57142857 L1.66666667,19.1428571 C1.66666667,19.6142857 1.29166667,20 0.833333333,20 Z M14.4472222,7.7 L5.32777778,7.7 C4.86666667,7.7 4.49444444,7.31714286 4.49444444,6.84285714 C4.49444444,6.36857143 4.86666667,5.98571429 5.32777778,5.98571429 L14.4472222,5.98571429 C14.9083333,5.98571429 15.2805556,6.36857143 15.2805556,6.84285714 C15.2805556,7.31714286 14.9083333,7.7 14.4472222,7.7 Z M9.41111111,11.7 L5.29166667,11.7 C4.83055556,11.7 4.45833333,11.3171429 4.45833333,10.8428571 C4.45833333,10.3685714 4.83055556,9.98571429 5.29166667,9.98571429 L9.41111111,9.98571429 C9.87222222,9.98571429 10.2444444,10.3685714 10.2444444,10.8428571 C10.2444444,11.3171429 9.87222222,11.7 9.41111111,11.7 Z M1.08333333,19.8571429 C0.811111111,19.8571429 0.547222222,19.72 0.386111111,19.4714286 C0.133333333,19.0742857 0.241666667,18.5428571 0.625,18.2857143 L5.06944444,15.2857143 C5.45555556,15.0257143 5.97222222,15.1371429 6.22222222,15.5314286 C6.475,15.9285714 6.36666667,16.46 5.98333333,16.7171429 L1.53888889,19.7171429 C1.4,19.8114286 1.23888889,19.8571429 1.08333333,19.8571429 Z" id="形状"></path>
                </g>
            </g>
        </g>
    </g>
</svg>