<?xml version="1.0" encoding="UTF-8"?>
<svg width="62px" height="62px" viewBox="0 0 62 62" version="1.1" xmlns="http://www.w3.org/2000/svg" xmlns:xlink="http://www.w3.org/1999/xlink">
    <title>相册</title>
    <defs>
        <polygon id="path-1" points="0 0 26 0 26 26 0 26"></polygon>
    </defs>
    <g id="页面-1" stroke="none" stroke-width="1" fill="none" fill-rule="evenodd">
        <g id="单聊" transform="translate(-14.000000, -673.000000)">
            <g id="相册" transform="translate(14.000000, 673.000000)">
                <rect id="矩形备份" fill="#F1F1F1" fill-rule="nonzero" x="0" y="0" width="62" height="62"></rect>
                <g transform="translate(18.000000, 18.000000)">
                    <g id="编组">
                        <mask id="mask-2" fill="white">
                            <use xlink:href="#path-1"></use>
                        </mask>
                        <use id="Clip-2" fill-opacity="0.00999999978" fill="#D8D8D8" fill-rule="nonzero" xlink:href="#path-1"></use>
                        <path d="M21.6982288,0 C24.0699863,0 26.0000439,1.93005431 26.0000439,4.30180836 L26.0000439,21.6981926 C26.0000439,24.0699463 24.0699863,26 21.6982288,26 L4.30181551,26 C1.92990887,26 0,24.0699463 0,21.6981926 L0,4.30180836 C0,1.93005431 1.92990887,0 4.30181551,0 Z M7.22004378,16.0650343 C6.97017348,15.8237961 6.5807091,15.8237961 6.3306905,16.0650343 L1.62765372,20.6052532 L1.62765372,21.7010193 C1.62765372,23.1747894 2.82819152,24.3751764 4.30181563,24.3751764 L21.6982294,24.3751764 C22.1021296,24.3751764 22.4829623,24.28514 22.8259932,24.1251583 L17.2132155,18.6751988 C16.8295552,18.3061237 16.2248961,18.3061237 15.8384081,18.6781752 L14.4576479,20.012352 C14.0333601,20.4222035 13.4723049,20.6488576 12.8822304,20.6488576 C12.2921559,20.6488576 11.7312504,20.4222035 11.3068129,20.012352 Z M21.6982294,1.62765086 L4.30181563,1.62765086 C2.8252151,1.62765086 1.62765372,2.82818663 1.62765372,4.30180824 L1.62765372,18.3409477 L5.19712198,14.8908402 C5.62141001,14.4809881 6.18246472,14.2541853 6.77253926,14.2541853 C7.36246502,14.2541853 7.92351973,14.4809881 8.347808,14.8908402 L12.4345776,18.8408371 C12.6845967,19.0822235 13.074061,19.0822235 13.3240801,18.8408371 L14.7046906,17.5068089 C15.1959482,17.0329634 15.8412358,16.7713372 16.5243231,16.7713372 C17.2074114,16.7713372 17.852698,17.0329634 18.3438078,17.5068089 L24.0235544,23.0177838 C24.2444044,22.6283203 24.3722426,22.1776921 24.3722426,21.6981922 L24.3722426,4.30180824 C24.3722426,2.82818663 23.1718527,1.62765086 21.6982294,1.62765086 Z" id="Fill-1" fill="#000000" fill-rule="nonzero" mask="url(#mask-2)"></path>
                    </g>
                    <path d="M18,5 C20.2047997,5 22,6.79520023 22,9 C22,11.2047997 20.2047997,13 18,13 C15.7952002,13 14,11.2047997 14,9 C14,6.79520023 15.7952002,5 18,5 Z M18.0000001,6.54226196 C16.6446619,6.54226196 15.5395876,7.6446619 15.5395876,9.00267446 C15.5395876,10.3608276 16.6419876,11.4632276 18.0000001,11.4632276 C19.3580126,11.4632276 20.4604126,10.3608276 20.4604126,9.00267446 C20.4604126,7.6446619 19.3553382,6.54226196 18.0000001,6.54226196 Z" id="Fill-3" fill="#000000" fill-rule="nonzero"></path>
                </g>
            </g>
        </g>
    </g>
</svg>