<?xml version="1.0" standalone="no"?><!DOCTYPE svg PUBLIC "-//W3C//DTD SVG 1.1//EN" "http://www.w3.org/Graphics/SVG/1.1/DTD/svg11.dtd"><svg t="1709286665171" class="icon" viewBox="0 0 1024 1024" version="1.1" xmlns="http://www.w3.org/2000/svg" p-id="14064" xmlns:xlink="http://www.w3.org/1999/xlink" width="48" height="48"><path d="M511.68 63.68c-247.776 0-448.576 200.8-448.576 448.576 0 247.776 200.8 448.64 448.576 448.64 247.808 0 448.608-200.8 448.608-448.64C960.256 264.512 759.456 63.68 511.68 63.68zM511.68 895.68c-211.712 0-384-172.256-384-384s172.288-384 384-384c211.744 0 384.032 172.256 384.032 384S723.392 895.68 511.68 895.68zM538.912 306.752c0-17.6-13.504-32-30.016-32s-30.016 14.4-30.016 32l0 133.248c0 17.6 0 34.112 0 36.736 0 2.592-2.08 4.704-4.672 4.704s-19.072 0-36.672 0l-131.008 0c-17.6 0-32 13.216-32 29.344 0 16.16 14.4 29.376 32 29.376l132.48 0c17.6 0 33.76 0 35.936 0 2.144 0 3.936 2.08 3.936 4.672s0 19.072 0 36.672l0 135.168c0 17.6 13.504 32 30.016 32s30.016-14.4 30.016-32l0-137.664c0-17.6 0-33.536 0-35.392s1.6-3.392 3.552-3.392c1.952 0 17.952 0 35.52 0l138.848 0c17.6 0 32-13.216 32-29.376 0-16.128-14.4-29.344-32-29.344l-137.344 0c-17.6 0-33.952 0-36.288 0-2.368 0-4.288-2.592-4.288-5.728 0-3.168 0-20.16 0-37.76L538.912 306.752z" fill="#333333" p-id="14065"></path></svg>