<?xml version="1.0" encoding="UTF-8"?>
<svg width="62px" height="62px" viewBox="0 0 62 62" version="1.1" xmlns="http://www.w3.org/2000/svg" xmlns:xlink="http://www.w3.org/1999/xlink">
    <title>拍摄</title>
    <g id="页面-1" stroke="none" stroke-width="1" fill="none" fill-rule="evenodd">
        <g id="单聊" transform="translate(-106.000000, -673.000000)">
            <g id="拍摄" transform="translate(106.000000, 673.000000)">
                <g id="编组备份" fill="#F1F1F1" fill-rule="nonzero">
                    <rect id="矩形" x="0" y="0" width="62" height="62"></rect>
                </g>
                <g transform="translate(17.175000, 18.000000)">
                    <path d="M22.257607,26 L5.41901743,26 C2.43173534,26 0,23.6561615 0,20.7733655 L0,8.5481169 C0,5.66688762 2.43011094,3.32148237 5.41901743,3.32148237 L7.09865293,3.32148237 C7.11977021,3.32148237 7.13763867,3.31051522 7.14413629,3.29171437 L7.63308241,2.10256101 C8.15776545,0.825670383 9.41830428,0 10.8429081,0 L16.8873217,0 C18.3054279,0 19.5627179,0.819403435 20.0922742,2.08846038 L20.5925911,3.29171437 C20.6007132,3.31051522 20.6185816,3.32148237 20.6380745,3.32148237 L22.2559826,3.32148237 C25.2432647,3.32148237 27.675,5.66532088 27.675,8.5481169 L27.675,20.7749322 C27.675,23.6561615 25.2448891,26 22.257607,26 Z M5.41901743,4.90519165 C3.68577655,4.90519165 1.70061514,6.87797529 1.70061514,8.55125038 L1.70061514,20.7780657 C1.70061514,22.449774 3.11059929,24.3122528 4.84546458,24.3122528 L22.8363122,24.3106861 C24.5695531,24.3106861 25.9811616,22.449774 25.9811616,20.7764989 L25.9811616,8.5481169 C25.9811616,6.87640856 24.5711775,4.90362491 22.8363122,4.90362491 L20.6396989,4.90362491 C19.6861727,4.90362491 18.8398574,4.3521335 18.4841125,3.49826185 L17.9837956,2.29500786 C17.8054088,1.86296026 17.3711052,1.58018169 16.8889461,1.58191715 L10.8429081,1.58191715 C10.3555864,1.58191715 9.92511886,1.86415519 9.74643423,2.29970807 L9.25748811,3.48886143 C8.90336767,4.34900003 8.0570523,4.90362491 7.09702853,4.90362491 L4.84546458,4.90519165 L5.41901743,4.90519165 Z" id="形状" fill="#000000" fill-rule="nonzero"></path>
                    <ellipse id="椭圆形" stroke="#000000" stroke-width="1.5" cx="13.8375" cy="14.5" rx="4.8875" ry="4.75"></ellipse>
                    <ellipse id="椭圆形" fill="#000000" cx="22.0375" cy="8.5" rx="1.5375" ry="1.5"></ellipse>
                </g>
            </g>
        </g>
    </g>
</svg>