<?xml version="1.0" encoding="UTF-8"?>
<svg width="30px" height="30px" viewBox="0 0 30 30" version="1.1" xmlns="http://www.w3.org/2000/svg" xmlns:xlink="http://www.w3.org/1999/xlink">
    <title>我的招募</title>
    <g id="我的招募" stroke="none" stroke-width="1" fill="none" fill-rule="evenodd">
        <g id="qizhi-备份" transform="translate(5.000000, 4.000000)" fill="#333333" fill-rule="nonzero">
            <path d="M4.98235766,1.9820035 C3.96150762,1.9820035 2.95589415,2.11817168 1.98075381,2.37537824 L1.98075381,12.2400064 C2.98636728,12.043319 3.97674419,11.9374104 4.98235766,11.9374104 C5.72894948,11.9374104 6.46030473,12.0130594 7.20689655,12.194617 C7.95348837,12.3610448 8.7914996,12.6031215 9.7361668,12.9208473 C9.85805934,12.9662367 10.0866079,13.0418857 10.4065758,13.1477942 C10.7417803,13.2537028 10.9855654,13.3444816 11.137931,13.389871 C11.2902967,13.4352604 11.5188452,13.5109094 11.80834,13.5865584 C12.0978348,13.6773372 12.3568565,13.7378563 12.5549318,13.7681159 C12.7530072,13.8135053 12.9815557,13.8437649 13.2405774,13.8740245 C13.499599,13.9042841 13.7433841,13.9194139 13.9871692,13.9194139 C15.0080192,13.9194139 16.0136327,13.7832457 16.9887731,13.5260392 L16.9887731,3.69167065 C15.9983962,3.88835802 14.9927827,3.9942666 13.9871692,3.9942666 C13.2405774,3.9942666 12.5092221,3.90348782 11.7626303,3.73706004 C11.0160385,3.57063227 10.1780273,3.3285555 9.23336006,3.01082975 L8.54771451,2.78388278 C8.30392943,2.7082338 8.06014435,2.61745501 7.81635926,2.54180602 C7.66399358,2.49641663 7.43544507,2.42076764 7.14595028,2.34511865 C6.85645549,2.26946966 6.59743384,2.19382067 6.39935846,2.14843128 C6.20128308,2.11817168 5.97273456,2.07278229 5.71371291,2.04252269 C5.48516439,2.0122631 5.24137931,1.9971333 4.98235766,1.9820035 L4.98235766,1.9820035 Z M4.98235766,0 C5.5308741,0 6.12510024,0.0756489887 6.76503609,0.211817168 C7.40497193,0.347985348 8.01443464,0.514413123 8.60866079,0.711100494 L10.3761026,1.30116261 C10.3761026,1.30116261 10.9855654,1.46759038 12.2197273,1.80044593 C12.7377706,1.93661411 13.6519647,2.0122631 14.0024058,2.0122631 C14.5661588,2.0122631 15.1146752,1.9820035 15.6631917,1.90635452 C16.2117081,1.84583532 16.6840417,1.75505654 17.0649559,1.66427775 C17.4458701,1.55836917 17.7963111,1.46759038 18.1010425,1.3616818 C18.4057739,1.25577321 18.6343224,1.18012422 18.7866881,1.11960503 L19,1.01369645 L19,14.9482402 C18.9542903,14.9784998 18.8628709,15.0087594 18.7714515,15.0541487 C18.6647955,15.0995381 18.4514836,15.1751871 18.1162791,15.2962255 C17.765838,15.4172639 17.415397,15.5080427 17.0649559,15.5988215 C16.6992783,15.6896003 16.2421812,15.7652492 15.6784282,15.8408982 C15.1146752,15.9165472 14.5661588,15.9468068 14.0024058,15.9468068 C13.4538893,15.9468068 12.8596632,15.8711578 12.2197273,15.7349896 C11.5950281,15.5988215 10.9855654,15.4323937 10.3761026,15.2357063 L8.60866079,14.660774 L6.76503609,14.1614907 C6.4755413,14.0858417 5.83560545,13.9799331 4.98235766,13.9496735 C3.99198075,13.9496735 2.98636728,14.0555821 1.98075381,14.2825291 L1.98075381,20.9245103 C1.98075381,21.1968466 1.8893344,21.4389234 1.69125902,21.6356108 C1.49318364,21.8322981 1.26463512,21.9230769 0.990376905,21.9230769 C0.716118685,21.9230769 0.472333601,21.8322981 0.289494787,21.6356108 C0.0914194066,21.4389234 0,21.2119764 0,20.9245103 L0,0.998566651 C0.0457097033,0.968307055 0.13712911,0.93804746 0.228548516,0.892658067 C0.335204491,0.847268673 0.548516439,0.771619685 0.88372093,0.650581303 C1.23416199,0.529542921 1.58460305,0.438764134 1.93504411,0.347985348 C2.30072173,0.257206562 2.75781877,0.181557573 3.32157177,0.105908584 C3.87008821,0.0302595955 4.41860465,0 4.98235766,0 L4.98235766,0 Z" id="形状"></path>
        </g>
    </g>
</svg>