<?xml version="1.0" encoding="UTF-8"?>
<svg width="30px" height="30px" viewBox="0 0 30 30" version="1.1" xmlns="http://www.w3.org/2000/svg" xmlns:xlink="http://www.w3.org/1999/xlink">
    <title>每日福利</title>
    <g id="每日福利" stroke="none" stroke-width="1" fill="none" fill-rule="evenodd">
        <g id="fuli" transform="translate(5.000000, 5.000000)" fill="#333333" fill-rule="nonzero">
            <path d="M13.659625,0.742880546 C14.849625,-0.296221797 16.687125,-0.241577151 17.840375,0.883761308 C18.886,1.90407956 19.030375,3.47169822 18.255125,4.62094371 L19.6875,4.62008988 C20.3632399,4.62007899 20.9285535,5.12072254 20.993875,5.77701979 L21,5.90082408 L21,10.1699381 C21,10.8296203 20.4864217,11.381366 19.8135,11.4446955 L19.6875,11.4506723 L19.25,11.4506723 L19.25,18.7192658 C19.2499676,19.378948 18.7364218,19.9306937 18.0635,19.9940232 L17.9375,20 L3.06249999,20 C2.38645582,20 1.82102524,19.4988516 1.756125,18.8422163 L1.74999999,18.7192658 L1.74999999,11.4506723 L1.3125,11.4506723 C0.636151287,11.4505983 0.0706035767,10.9490082 0.00612500684,10.2920348 L0,10.1699381 L0,5.90082408 C0,5.24114188 0.513578252,4.68939614 1.1865,4.62606664 L1.3125,4.62008988 L2.74487499,4.62008988 C1.97049999,3.4716982 2.11487499,1.90407954 3.15962499,0.883761308 C4.312875,-0.241577151 6.15125001,-0.296221797 7.34037501,0.742880546 L7.46112501,0.853877516 L10.5,3.82176557 L13.538875,0.855585155 L13.659625,0.744588184 L13.659625,0.742880546 Z M9.62499999,11.461772 L3.50000001,11.461772 L3.50000001,18.2923544 L9.62499999,18.2923544 L9.62499999,11.461772 L9.62499999,11.461772 Z M17.5,11.461772 L11.375,11.461772 L11.375,18.2923544 L17.5,18.2923544 L17.5,11.461772 Z M9.62499999,6.32688166 L1.74999999,6.32688166 L1.74999999,9.74217288 L9.62499999,9.74217288 L9.62499999,6.32688166 L9.62499999,6.32688166 Z M19.25,6.32688166 L11.375,6.32688166 L11.375,9.74217288 L19.25,9.74217288 L19.25,6.32688166 L19.25,6.32688166 Z M16.603125,2.09192056 C16.120125,1.61975655 15.371125,1.58389599 14.872375,1.97750832 L14.776125,2.0628906 L12.154625,4.62008988 L15.86725,4.62008988 L16.632875,3.87299493 L16.71425,3.78505118 C17.12375,3.29837218 17.087875,2.56408458 16.603125,2.09106676 L16.603125,2.09192056 Z M4.396875,2.09192056 C3.91212501,2.56408458 3.87624999,3.29922601 4.28574999,3.78505118 L4.36712499,3.87299493 L5.13275001,4.62008988 L8.84450001,4.62008988 L6.22299999,2.06118294 C5.730375,1.57962688 4.91224999,1.58731129 4.396875,2.09021293 L4.396875,2.09192056 Z" id="形状"></path>
        </g>
    </g>
</svg>