<?xml version="1.0" encoding="UTF-8"?>
<svg width="34px" height="34px" viewBox="0 0 34 34" version="1.1" xmlns="http://www.w3.org/2000/svg" xmlns:xlink="http://www.w3.org/1999/xlink">
    <title>编辑</title>
    <g id="页面-1" stroke="none" stroke-width="1" fill="none" fill-rule="evenodd">
        <g id="单聊-延展功能" transform="translate(-16.000000, -416.000000)">
            <g id="编辑" transform="translate(16.000000, 416.000000)">
                <rect id="矩形" x="0" y="0" width="34" height="34"></rect>
                <g id="bianji" transform="translate(7.000000, 7.000000)" fill="#333333" fill-rule="nonzero">
                    <path d="M18.643307,0.240919478 C18.8414274,0.0357902958 19.1348139,-0.0464770976 19.410703,0.0257368357 C19.6865921,0.097950769 19.9020492,0.313407859 19.9742632,0.589297002 C20.0464771,0.865186145 19.9642097,1.15857257 19.7590805,1.35669296 L8.60055662,12.5154799 C8.29237166,12.8236648 7.7927051,12.8236648 7.48452013,12.5154799 C7.17633516,12.2072949 7.17633516,11.7076283 7.48452013,11.3994434 L18.643307,0.241182491 L18.643307,0.240919478 Z M18.4121036,8.42667772 C18.4121036,7.99087526 18.7653913,7.63758756 19.2011938,7.63758756 C19.6369962,7.63758756 19.9902839,7.99087526 19.9902839,8.42667772 L19.9902839,17.1066694 C19.9902839,18.704577 18.6948609,20 17.0969534,20 L2.89333056,20 C1.295423,20 0,18.704577 0,17.1066694 L0,2.90304663 C0,1.30513906 1.295423,0.00971606184 2.89333056,0.00971606184 L11.3102922,0.00971606184 C11.7460947,0.00971606184 12.0993824,0.363003758 12.0993824,0.798806218 C12.0993824,1.23460868 11.7460947,1.58789637 11.3102922,1.58789637 L2.89333056,1.58789637 C2.16699314,1.58789637 1.57818031,2.1767092 1.57818031,2.90304663 L1.57818031,17.1066694 C1.57818031,17.8330069 2.16699314,18.4218197 2.89333056,18.4218197 L17.0969534,18.4218197 C17.8232908,18.4218197 18.4121036,17.8330069 18.4121036,17.1066694 L18.4121036,8.42667772 Z" id="形状"></path>
                </g>
            </g>
        </g>
    </g>
</svg>