<?xml version="1.0" encoding="UTF-8"?>
<svg width="30px" height="30px" viewBox="0 0 30 30" version="1.1" xmlns="http://www.w3.org/2000/svg" xmlns:xlink="http://www.w3.org/1999/xlink">
    <title>我的-编辑</title>
    <g id="我的-编辑" stroke="none" stroke-width="1" fill="none" fill-rule="evenodd">
        <g id="我的-编辑备份" transform="translate(6.000000, 5.999952)" fill="#333333" stroke="#333333" stroke-width="0.5">
            <g id="编组">
                <path d="M17.998359,14.2516126 C17.8908135,16.3467769 16.0784432,17.9945914 13.8755259,18 L4.12762973,18 C1.92420757,17.9953126 0.111332398,16.3471375 0.00467040673,14.2516126 L0,14.2516126 L0,3.75139221 L0.00467040673,3.75139221 C0.110575035,1.65514617 1.92332398,0.00552877232 4.12762973,0 L12.3387097,0 L10.5587798,1.43026936 L4.12762973,1.43026936 C2.67626928,1.43856252 1.50374474,2.56030235 1.50210379,3.94225504 L1.50210379,14.0593074 C1.50210379,15.4415005 2.68232819,16.5682884 4.12762973,16.5682884 L13.8755259,16.5682884 C15.3239832,16.5682884 16.5010519,15.4415005 16.5010519,14.0593074 L16.5010519,6.98007505 L18,5.57228135 L18,14.2516126 L17.998359,14.2516126 Z" id="Fill-1"></path>
            </g>
            <g id="编组" transform="translate(5.333333, 0.000060)">
                <path d="M0.289036994,11.9372731 C0.670508022,12.3059494 1.28965338,12.3066678 1.67199365,11.9388297 C1.67249035,11.9383507 1.67311124,11.937752 1.67360794,11.9372731 L12.3792595,1.6143365 C12.7623449,1.24494176 12.7625932,0.646007401 12.3795079,0.276492923 L12.3792595,0.276253445 L12.3761551,0.274696838 C11.993939,-0.0921833833 11.3759113,-0.0914649494 10.9945644,0.276253445 L0.287546873,10.59919 C-0.0956626296,10.968465 -0.0959109831,11.5673994 0.287174342,11.9369138 C0.287298519,11.9370336 0.287422696,11.9371533 0.287546873,11.9372731 L0.289036994,11.9372731 Z" id="Fill-3"></path>
            </g>
        </g>
    </g>
</svg>