<?xml version="1.0" encoding="UTF-8"?>
<svg width="34px" height="34px" viewBox="0 0 34 34" version="1.1" xmlns="http://www.w3.org/2000/svg" xmlns:xlink="http://www.w3.org/1999/xlink">
    <title>删除</title>
    <g id="页面-1" stroke="none" stroke-width="1" fill="none" fill-rule="evenodd">
        <g id="单聊-延展功能" transform="translate(-108.000000, -468.000000)">
            <g id="删除" transform="translate(108.000000, 468.000000)">
                <rect id="矩形备份" x="0" y="0" width="34" height="34"></rect>
                <g id="shanchu" transform="translate(7.000000, 6.000000)" fill="#333333" fill-rule="nonzero">
                    <path d="M1.94444445,4.4 L0.833333333,4.4 C0.373096042,4.4 0,4.03063492 0,3.575 C0,3.11936509 0.373096042,2.75000001 0.833333333,2.75000001 L19.1666667,2.75000001 C19.626904,2.75000001 20,3.11936509 20,3.575 C20,4.03063492 19.626904,4.4 19.1666667,4.4 L3.61111112,4.4 L3.61111112,18.975 C3.61111111,19.3396727 3.75744005,19.6894093 4.01790725,19.9472718 C4.27837444,20.2051343 4.63164376,20.35 5,20.35 L15,20.35 C15.3683562,20.35 15.7216256,20.2051343 15.9820928,19.9472718 C16.2425599,19.6894093 16.3888889,19.3396727 16.3888889,18.975 L16.3888889,6.875 C16.3888889,6.41936508 16.7619849,6.05 17.2222222,6.05 C17.6824595,6.05 18.0555555,6.41936508 18.0555555,6.875 L18.0555555,18.975 C18.0555555,20.645625 16.6875,22 15,22 L5,22 C3.3125,22 1.94444445,20.645625 1.94444445,18.975 L1.94444445,4.4 Z M7.77777779,1.65 C7.31754049,1.65 6.94444445,1.28063492 6.94444445,0.824999999 C6.94444445,0.369365081 7.31754049,0 7.77777779,0 L12.2222222,0 C12.6824595,0 13.0555555,0.369365081 13.0555555,0.824999999 C13.0555555,1.28063492 12.6824595,1.65 12.2222222,1.65 L7.77777779,1.65 L7.77777779,1.65 Z M6.94444445,9.07499999 C6.94444445,8.61936507 7.31754049,8.24999999 7.77777779,8.24999999 C8.23801508,8.24999999 8.61111112,8.61936507 8.61111112,9.07499999 L8.61111112,15.675 C8.61111112,16.1306349 8.23801508,16.5 7.77777779,16.5 C7.31754049,16.5 6.94444445,16.1306349 6.94444445,15.675 L6.94444445,9.07499999 Z M11.3888889,9.07499999 C11.3888889,8.61936507 11.7619849,8.24999999 12.2222222,8.24999999 C12.6824595,8.24999999 13.0555555,8.61936507 13.0555555,9.07499999 L13.0555555,15.675 C13.0555555,16.1306349 12.6824595,16.5 12.2222222,16.5 C11.7619849,16.5 11.3888889,16.1306349 11.3888889,15.675 L11.3888889,9.07499999 Z" id="形状"></path>
                </g>
            </g>
        </g>
    </g>
</svg>