<?xml version="1.0" encoding="UTF-8"?>
<svg width="24px" height="23px" viewBox="0 0 24 23" version="1.1" xmlns="http://www.w3.org/2000/svg" xmlns:xlink="http://www.w3.org/1999/xlink">
    <title>消息-未选</title>
    <g id="页面-1" stroke="none" stroke-width="1" fill="none" fill-rule="evenodd">
        <g id="首页" transform="translate(-127.000000, -743.000000)" fill="#333333" fill-rule="nonzero">
            <g id="消息-未选" transform="translate(127.800000, 743.733333)">
                <path d="M11.2130021,0 C18.0104945,0 22.4,5.43613508 22.4,10.4218684 C22.4,16.3626831 17.5876666,21.3818182 11.2140422,21.3818182 C9.1623125,21.3818182 7.54589272,20.9757781 5.81141398,20.0264377 L3.65098676,21.254474 C2.97331786,21.4606254 2.42046899,21.3807744 1.99296029,21.013877 C1.56493151,20.6469797 1.38030182,20.1642199 1.43907127,19.5655979 C1.68248141,18.6988801 1.92345444,17.8314749 2.16198747,16.9633927 C1.4385512,16.0589359 0,13.9713264 0,10.4218684 C0,5.43613508 4.41602971,0 11.2130021,0 Z M11.1817971,1.56570711 C5.85250058,1.56570711 1.56025075,5.67046925 1.56025075,10.6989986 C1.56025075,12.5914166 2.16666822,14.396155 3.28224751,15.914369 L3.41382865,16.0886843 L3.85798004,16.6638207 L2.95667518,19.8135016 C2.95515391,19.8167998 2.95609475,19.8207149 2.95894689,19.8229549 C2.96179903,19.8251948 2.9658123,19.8251703 2.96863711,19.8228958 L5.73340145,18.2613639 L6.38558626,18.6183451 C7.83141861,19.4095491 9.47228233,19.83229 11.1817971,19.83229 C16.5110936,19.83229 20.8033434,15.7275279 20.8033434,10.6989986 C20.8033434,5.67046927 16.5110936,1.56570711 11.1817971,1.56570711 Z M6.50104482,9.39424265 C7.2191304,9.39424265 7.80125378,9.97840177 7.80125378,10.6989986 C7.80125378,11.4195954 7.2191304,12.0037545 6.50104482,12.0037545 C5.78295923,12.0037545 5.20083585,11.4195954 5.20083585,10.6989986 C5.20083585,9.97840177 5.78295923,9.39424265 6.50104482,9.39424265 L6.50104482,9.39424265 Z M10.9586812,9.39424265 C11.6767668,9.39424265 12.2588902,9.97840177 12.2588902,10.6989986 C12.2588902,11.4195954 11.6767668,12.0037545 10.9586812,12.0037545 C10.2405956,12.0037545 9.65847226,11.4195954 9.65847226,10.6989986 C9.65847226,9.97840177 10.2405956,9.39424265 10.9586812,9.39424265 L10.9586812,9.39424265 Z M15.4168377,9.39424265 C16.1349233,9.39424265 16.7170467,9.97840177 16.7170467,10.6989986 C16.7170467,11.4195954 16.1349233,12.0037545 15.4168377,12.0037545 C14.6987521,12.0037545 14.1166287,11.4195954 14.1166287,10.6989986 C14.1166287,9.97840177 14.6987521,9.39424265 15.4168377,9.39424265 L15.4168377,9.39424265 Z" id="形状"></path>
            </g>
        </g>
    </g>
</svg>