<?xml version="1.0" encoding="UTF-8"?>
<svg width="30px" height="30px" viewBox="0 0 30 30" version="1.1" xmlns="http://www.w3.org/2000/svg" xmlns:xlink="http://www.w3.org/1999/xlink">
    <title>黑名单</title>
    <g id="黑名单" stroke="none" stroke-width="1" fill="none" fill-rule="evenodd">
        <g id="heimingdan-2备份" transform="translate(5.000000, 5.000000)" fill="#333333" fill-rule="nonzero" stroke="#333333" stroke-width="0.4">
            <path d="M9.87298848,1.5530926 C12.212077,1.5530926 14.1158866,3.38505542 14.1158866,5.62173758 C14.1158866,5.90060779 14.0844895,6.18090812 14.0359666,6.44404719 C13.9389208,6.86306757 14.2300581,7.28208795 14.6639098,7.36074365 C15.0991886,7.45370039 15.520196,7.17483018 15.6158146,6.75437969 C15.6971618,6.38112263 15.728559,6.00929567 15.728559,5.62173758 C15.728559,2.53128352 13.0983332,0 9.87156134,0 C6.66048807,0 4.03026228,2.53128352 4.03026228,5.62173758 C4.03026228,7.49946371 4.99929283,9.17697533 6.48352226,10.2023597 C6.50207512,10.2166607 6.53347228,10.2323918 6.56629659,10.262424 C6.53489943,10.262424 6.50207512,10.2781552 6.46925082,10.2924562 C2.6944558,11.6296031 4.25788118e-06,15.1219163 4.25788118e-06,19.2220236 C-0.00141860228,19.6424741 0.353940173,20 0.806344718,20 C1.25874926,20 1.61268089,19.6424741 1.61268089,19.2234537 C1.61268089,15.5109045 4.25860527,12.3904183 7.82503731,11.5066142 C7.9063845,11.489453 7.98630455,11.4594208 8.06622459,11.4436897 C8.08335032,11.4436897 8.0990489,11.4436897 8.1318732,11.4279585 C8.29314044,11.3664641 8.45440767,11.2577762 8.55145344,11.117626 C8.74554498,10.9145513 8.84116361,10.6514122 8.84116361,10.372542 C8.84116361,10.1551662 8.77694214,9.95352163 8.66419779,9.78190919 C8.56572488,9.61029675 8.40588479,9.47157669 8.22749183,9.37718985 C8.19609467,9.36288881 8.14614464,9.33142653 8.11474748,9.33142653 C6.66191522,8.69503039 5.64578892,7.26635681 5.64578892,5.62030747 C5.64578892,3.38505542 7.54959858,1.5530926 9.87298848,1.5530926 Z M15.0049971,9.98927422 C12.2463284,9.98927422 10.0099943,12.2302467 10.0099943,14.9946371 C10.0099943,17.7590275 12.2463284,20 15.0049971,20 C17.7636659,20 20,17.7590275 20,14.9946371 C20,12.2302467 17.7636659,9.98927422 15.0049971,9.98927422 Z M15.0049971,18.5698963 C13.0341117,18.5698963 11.437138,16.9696103 11.437138,14.9946371 C11.437138,13.0196639 13.0341117,11.4193779 15.0049971,11.4193779 C16.9758826,11.4193779 18.5728563,13.0196639 18.5728563,14.9946371 C18.5728563,16.9696103 16.9758826,18.5698963 15.0049971,18.5698963 Z M16.4321408,14.2795853 L13.5778535,14.2795853 C13.1839618,14.2795853 12.8642816,14.5999285 12.8642816,14.9946371 C12.8642816,15.3893457 13.1839618,15.709689 13.5778535,15.709689 L16.4321408,15.709689 C16.8260325,15.709689 17.1457127,15.3893457 17.1457127,14.9946371 C17.1457127,14.5999285 16.8260325,14.2795853 16.4321408,14.2795853 Z" id="形状"></path>
        </g>
    </g>
</svg>