<?xml version="1.0" encoding="UTF-8"?>
<svg width="34px" height="34px" viewBox="0 0 34 34" version="1.1" xmlns="http://www.w3.org/2000/svg" xmlns:xlink="http://www.w3.org/1999/xlink">
    <title>转发</title>
    <g id="页面-1" stroke="none" stroke-width="1" fill="none" fill-rule="evenodd">
        <g id="单聊-延展功能" transform="translate(-160.000000, -468.000000)">
            <g id="转发" transform="translate(160.000000, 468.000000)">
                <rect id="矩形备份-6" x="0" y="0" width="34" height="34"></rect>
                <g id="zhuanfa" transform="translate(7.000000, 7.000000)" fill="#333333" fill-rule="nonzero">
                    <path d="M10,1.77635684e-15 L10,1.57894867 L2.368423,1.57894867 C1.95804437,1.57894867 1.62081548,1.89202458 1.58255064,2.29238675 L1.57894867,2.368423 L1.57894867,17.631577 C1.57894867,18.0419556 1.89202458,18.3791845 2.29238675,18.4174494 L2.368423,18.4210513 L17.631577,18.4210513 C18.0419556,18.4210513 18.3791845,18.1079754 18.4174494,17.7076132 L18.4210513,17.631577 L18.4210513,10 L20,10 L20,17.631577 C20,18.9022606 18.9993413,19.9392105 17.7430902,19.9974342 L17.631577,20 L2.368423,20 C1.09773939,20 0.0607895237,18.9993413 0.00256579158,17.7430902 L0,17.631577 L0,2.368423 C0,1.09773939 1.00065872,0.0607895237 2.25690975,0.00256579158 L2.368423,1.77635684e-15 L10,1.77635684e-15 Z M20,0 L20,7.36841066 L18.4210513,7.36841066 L18.4210513,2.69472261 L10.5582324,10.5582324 L9.44176763,9.44176763 L17.3042165,1.57894867 L12.6315893,1.57894867 L12.6315893,0 L20,0 L20,0 Z" id="形状"></path>
                </g>
            </g>
        </g>
    </g>
</svg>