<?xml version="1.0" encoding="UTF-8"?>
<svg width="30px" height="30px" viewBox="0 0 30 30" version="1.1" xmlns="http://www.w3.org/2000/svg" xmlns:xlink="http://www.w3.org/1999/xlink">
    <title>消息-选中</title>
    <g id="页面-1" stroke="none" stroke-width="1" fill="none" fill-rule="evenodd">
        <g id="消息-空状态" transform="translate(-124.000000, -740.000000)">
            <g id="消息-选中" transform="translate(124.000000, 740.000000)">
                <rect id="矩形" x="0" y="0" width="30" height="30"></rect>
                <g id="编组" transform="translate(4.000000, 4.000000)" fill-rule="nonzero">
                    <path d="M11.5133504,0 C18.4929185,0 23,5.58174584 23,10.7010256 C23,16.8009692 18.0587648,21.9545455 11.5144184,21.9545455 C9.40773159,21.9545455 7.74801485,21.5376293 5.96707686,20.5628602 L3.74878105,21.8237903 C3.0529603,22.0354636 2.48530299,21.9534737 2.04634315,21.5767487 C1.60684931,21.2000238 1.41727419,20.704333 1.47761782,20.0896765 C1.72754788,19.199743 1.97497554,18.3091037 2.21989785,17.4177693 C1.47708382,16.489086 0,14.3455584 0,10.7010256 C0,5.58174584 4.53431622,0 11.5133504,0 Z" id="路径" fill="#F55850"></path>
                    <path d="M6.67517995,9.64587415 C7.41249996,9.64587415 8.01021594,10.2456804 8.01021594,10.9855789 C8.01021594,11.7254774 7.41249996,12.3252836 6.67517995,12.3252836 C5.93785993,12.3252836 5.34014395,11.7254774 5.34014395,10.9855789 C5.34014395,10.2456804 5.93785993,9.64587415 6.67517995,9.64587415 L6.67517995,9.64587415 Z" id="路径" fill="#FFFFFF"></path>
                    <path d="M11.2522173,9.64587415 C11.9895373,9.64587415 12.5872533,10.2456804 12.5872533,10.9855789 C12.5872533,11.7254774 11.9895373,12.3252836 11.2522173,12.3252836 C10.5148973,12.3252836 9.91718133,11.7254774 9.91718133,10.9855789 C9.91718133,10.2456804 10.5148973,9.64587415 11.2522173,9.64587415 L11.2522173,9.64587415 Z" id="路径" fill="#FFFFFF"></path>
                    <path d="M15.8297887,9.64587415 C16.5671087,9.64587415 17.1648247,10.2456804 17.1648247,10.9855789 C17.1648247,11.7254774 16.5671087,12.3252836 15.8297887,12.3252836 C15.0924687,12.3252836 14.4947527,11.7254774 14.4947527,10.9855789 C14.4947527,10.2456804 15.0924687,9.64587415 15.8297887,9.64587415 L15.8297887,9.64587415 Z" id="路径" fill="#FFFFFF"></path>
                </g>
            </g>
        </g>
    </g>
</svg>