<?xml version="1.0" encoding="UTF-8"?>
<svg width="30px" height="30px" viewBox="0 0 30 30" version="1.1" xmlns="http://www.w3.org/2000/svg" xmlns:xlink="http://www.w3.org/1999/xlink">
    <title>我的瓶子</title>
    <g id="我的瓶子" stroke="none" stroke-width="1" fill="none" fill-rule="evenodd">
        <g id="编组-2备份" transform="translate(8.000000, 3.000000)" stroke="#333333" stroke-width="2">
            <g id="jiuping_bottle-one" fill-rule="nonzero">
                <path d="M0,16.25 C0,15.0329175 0.491245103,13.848666 1.4,12.875 L4.2,9.875 C4.5029183,9.55044468 4.66666667,9.15569415 4.66666667,8.75 L4.66666667,0 L9.33333333,0 L9.33333333,8.75 C9.33333333,9.15569415 9.4970817,9.55044468 9.8,9.875 L12.6,12.875 C13.5087549,13.848666 14,15.0329175 14,16.25 L14,23.75 C14,24.4403559 13.303554,25 12.4444444,25 L1.55555557,25 C0.69644595,25 0,24.4403559 0,23.75 L0,16.25 Z" id="路径"></path>
            </g>
            <line x1="8.5" y1="19.5" x2="12.5" y2="19.5" id="直线" stroke-linecap="round" stroke-linejoin="round"></line>
        </g>
    </g>
</svg>