<?xml version="1.0" encoding="UTF-8"?>
<svg width="30px" height="30px" viewBox="0 0 30 30" version="1.1" xmlns="http://www.w3.org/2000/svg" xmlns:xlink="http://www.w3.org/1999/xlink">
    <title>我的投稿</title>
    <g id="我的投稿" stroke="none" stroke-width="1" fill="none" fill-rule="evenodd">
        <path d="M13.2310311,25.2493871 C12.7310878,25.2493871 12.327519,24.8458184 12.327519,24.345875 L12.327519,19.144657 C12.327519,18.9368493 12.3998,18.7320532 12.5323151,18.5724327 L23.3985539,5.32995705 C23.654549,5.01673952 24.0882348,4.91434149 24.4586748,5.07697367 C24.8291148,5.23960585 25.0459577,5.62811604 24.9917469,6.02867309 L22.5191355,23.6290888 C22.4799833,23.9182126 22.2992809,24.171196 22.0432858,24.3037111 C21.784279,24.4392379 21.4770849,24.4392379 21.2150664,24.3067228 L15.5741392,21.4365661 C15.1284065,21.2106881 14.9537275,20.6655691 15.1796055,20.2228481 C15.4054836,19.7771155 15.9506025,19.6024365 16.3933235,19.8283145 L20.9078723,22.126247 L22.7570603,8.9650874 L14.1345432,19.4699214 L14.1345432,24.345875 C14.1345432,24.8458184 13.7279628,25.2493871 13.2310311,25.2493871 Z" id="路径" fill="#333333" fill-rule="nonzero"></path>
        <path d="M10.508448,18.8043342 C10.3699095,18.8043342 10.2283593,18.7712054 10.0958441,18.7049478 L5.48793243,16.3256993 C5.18977343,16.1721022 5,15.8649081 5,15.5275969 C4.99702418,15.1902858 5.18375001,14.8830917 5.48190903,14.7234712 L23.675631,5.10407903 C24.1153402,4.87217759 24.6634709,5.04083319 24.8953723,5.4805424 C25.1272738,5.92025163 24.9586181,6.46838229 24.5189089,6.70028373 L7.85212243,15.5125384 L10.9240636,17.099708 C11.3667845,17.3285977 11.5414635,17.8737167 11.3125738,18.3164376 C11.1529533,18.6266434 10.8367241,18.8043342 10.508448,18.8043342 Z" id="路径" fill="#333333" fill-rule="nonzero"></path>
    </g>
</svg>