<?xml version="1.0" encoding="UTF-8"?>
<svg width="34px" height="34px" viewBox="0 0 34 34" version="1.1" xmlns="http://www.w3.org/2000/svg" xmlns:xlink="http://www.w3.org/1999/xlink">
    <title>取消</title>
    <g id="页面-1" stroke="none" stroke-width="1" fill="none" fill-rule="evenodd">
        <g id="单聊-延展功能" transform="translate(-77.000000, -426.000000)">
            <g id="取消" transform="translate(77.000000, 426.000000)">
                <rect id="矩形备份-11" x="0" y="0" width="34" height="34"></rect>
                <g id="quxiao" transform="translate(5.000000, 6.000000)" fill="#333333" fill-rule="nonzero">
                    <path d="M11.5,1.6171875 C12.8341797,1.6171875 14.1279297,1.87773437 15.3453125,2.39208984 C16.5222656,2.89072266 17.5779297,3.60273438 18.4875977,4.51015625 C19.3950195,5.41757813 20.1092773,6.47548828 20.6056641,7.65244141 C21.1222656,8.87207031 21.3828125,10.1658203 21.3828125,11.5 C21.3828125,12.8341797 21.1222656,14.1279297 20.6079102,15.3453125 C20.1092773,16.5222656 19.3972656,17.5779297 18.4898437,18.4875977 C17.5824219,19.3950195 16.5245117,20.1092773 15.3475586,20.6056641 C14.1279297,21.1222656 12.8341797,21.3828125 11.5,21.3828125 C10.1658203,21.3828125 8.87207031,21.1222656 7.6546875,20.6079102 C6.47773438,20.1092773 5.42207031,19.3972656 4.51240234,18.4898437 C3.60498047,17.5824219 2.89072266,16.5245117 2.39433594,15.3475586 C1.87773437,14.1279297 1.6171875,12.8341797 1.6171875,11.5 C1.6171875,10.1658203 1.87773437,8.87207031 2.39208984,7.6546875 C2.89072266,6.47773438 3.60273438,5.42207031 4.51015625,4.51240234 C5.41757813,3.60498047 6.47548828,2.89072266 7.65244141,2.39433594 C8.87207031,1.87773437 10.1658203,1.6171875 11.5,1.6171875 M11.5,0 C5.14804687,0 0,5.14804687 0,11.5 C0,17.8519531 5.14804687,23 11.5,23 C17.8519531,23 23,17.8519531 23,11.5 C23,5.14804688 17.8519531,0 11.5,0 Z" id="形状"></path>
                    <path d="M7.82310813,16 C7.61319559,16 7.40328305,15.9201268 7.24128533,15.7603803 C6.91957156,15.4386054 6.91957156,14.9182884 7.24128533,14.5987956 L14.5973507,7.24133122 C14.9190645,6.91955626 15.4392825,6.91955626 15.7587147,7.24133122 C16.0804284,7.56310618 16.0804284,8.08342314 15.7587147,8.40291601 L8.40493092,15.7603803 C8.2429332,15.9201268 8.03302066,16 7.82310813,16 Z" id="路径"></path>
                    <path d="M15.1791735,16 C14.969261,16 14.7593485,15.9201268 14.5973507,15.7603803 L7.24128533,8.40291601 C6.91957156,8.08114105 6.91957156,7.56082409 7.24128533,7.24133122 C7.56299911,6.91955626 8.08321714,6.91955626 8.40264926,7.24133122 L15.7587147,14.5987956 C16.0804284,14.9205705 16.0804284,15.4408875 15.7587147,15.7603803 C15.5989986,15.9201268 15.3890861,16 15.1791735,16 L15.1791735,16 Z" id="路径"></path>
                </g>
            </g>
        </g>
    </g>
</svg>