<?xml version="1.0" encoding="UTF-8"?>
<svg width="34px" height="34px" viewBox="0 0 34 34" version="1.1" xmlns="http://www.w3.org/2000/svg" xmlns:xlink="http://www.w3.org/1999/xlink">
    <title>复制</title>
    <g id="页面-1" stroke="none" stroke-width="1" fill="none" fill-rule="evenodd">
        <g id="单聊-延展功能" transform="translate(-56.000000, -468.000000)">
            <g id="复制" transform="translate(56.000000, 468.000000)">
                <rect id="矩形" x="0" y="0" width="34" height="34"></rect>
                <g id="fuzhi" transform="translate(7.000000, 7.000000)" fill="#333333" fill-rule="nonzero">
                    <path d="M7.10526316,0 L18.1578948,0 C19.1752614,0 20,0.824738618 20,1.84210525 L20,12.8947368 C20,13.9121035 19.1752614,14.7368421 18.1578948,14.7368421 L7.10526316,14.7368421 C6.08789651,14.7368421 5.26315789,13.9121035 5.26315789,12.8947368 L5.26315789,1.84210525 C5.26315789,0.824738608 6.08789652,0 7.10526316,0 Z M7.10526316,1.57894737 C6.95992508,1.57894737 6.84210526,1.69676716 6.84210526,1.84210525 L6.84210526,12.8947368 C6.84210526,13.0400749 6.95992507,13.1578947 7.10526316,13.1578947 L18.1578948,13.1578947 C18.3032328,13.1578947 18.4210526,13.0400749 18.4210526,12.8947368 L18.4210526,1.84210525 C18.4210526,1.69676717 18.3032328,1.57894737 18.1578948,1.57894737 L7.10526316,1.57894737 Z M13.1578947,16.3157895 C13.1578947,15.8797752 13.5113541,15.5263158 13.9473684,15.5263158 C14.3833827,15.5263158 14.7368421,15.8797752 14.7368421,16.3157895 L14.7368421,18.1578948 C14.7368421,19.1752614 13.9121035,20 12.8947368,20 L1.84210525,20 C0.824738618,20 0,19.1752614 0,18.1578948 L0,7.10526316 C0,6.08789652 0.824738608,5.26315789 1.84210525,5.26315789 L3.68421052,5.26315789 C4.1202248,5.26315789 4.47368421,5.6166173 4.47368421,6.05263158 C4.47368421,6.48864585 4.1202248,6.84210526 3.68421052,6.84210526 L1.84210525,6.84210526 C1.69676716,6.84210527 1.57894737,6.95992508 1.57894737,7.10526316 L1.57894737,18.1578948 C1.57894738,18.3032328 1.69676717,18.4210526 1.84210525,18.4210526 L12.8947368,18.4210526 C13.0400749,18.4210526 13.1578947,18.3032328 13.1578947,18.1578948 L13.1578947,16.3157895 Z" id="形状"></path>
                </g>
            </g>
        </g>
    </g>
</svg>