<?xml version="1.0" encoding="UTF-8"?>
<svg width="30px" height="30px" viewBox="0 0 30 30" version="1.1" xmlns="http://www.w3.org/2000/svg" xmlns:xlink="http://www.w3.org/1999/xlink">
    <title>编组备份</title>
    <defs>
        <rect id="path-1" x="0" y="0" width="30" height="30"></rect>
    </defs>
    <g id="页面-1" stroke="none" stroke-width="1" fill="none" fill-rule="evenodd">
        <g id="我的" transform="translate(-310.000000, -740.000000)">
            <g id="编组备份" transform="translate(310.000000, 740.000000)">
                <mask id="mask-2" fill="white">
                    <use xlink:href="#path-1"></use>
                </mask>
                <g id="蒙版"></g>
                <g mask="url(#mask-2)" fill="#F55850" fill-rule="nonzero" id="路径">
                    <g transform="translate(4.000000, 4.000000)">
                        <path d="M11.0027664,14.9238095 C22.0999172,14.9238095 21.9899157,21.7610952 21.9899157,21.7610952 C22.0739168,22.3821238 21.6239107,22.8857143 20.983902,22.8857143 L1.02163089,22.8857143 C0.381622194,22.8857143 -0.0933842418,22.3751571 0.015617223,21.7610952 C0.015617223,21.7610952 -0.0963843059,14.9238095 11.0027664,14.9238095 Z"></path>
                        <path d="M10.9997664,0 L17.9998615,0 L17.9998615,6.96666667 C17.9998615,10.8142504 14.8658122,13.9333333 10.9997664,13.9333333 C7.13372065,13.9333333 3.99967133,10.8142504 3.99967133,6.96666667 C3.99967133,3.11908291 7.13372065,0 10.9997664,0 Z"></path>
                    </g>
                </g>
            </g>
        </g>
    </g>
</svg>