<?xml version="1.0" encoding="UTF-8"?>
<svg width="30px" height="30px" viewBox="0 0 30 30" version="1.1" xmlns="http://www.w3.org/2000/svg" xmlns:xlink="http://www.w3.org/1999/xlink">
    <title>设置</title>
    <g id="设置" stroke="none" stroke-width="1" fill="none" fill-rule="evenodd">
        <g id="设置备份" transform="translate(5.571429, 6.317504)" fill="#333333" stroke="#333333">
            <g id="编组" transform="translate(-0.000000, -0.000000)">
                <g id="设置" stroke-width="0.6">
                    <path d="M15.7086229,16.0034227 C15.1129938,17.1763945 13.9151661,17.9142791 12.6071179,17.9142791 L6.30775607,17.9142791 C5.00992696,17.9135441 3.82012861,17.1874187 3.22011988,16.0291458 L0.395261229,10.5795304 C-0.131753743,9.56310177 -0.131753743,8.35044291 0.395261229,7.33401431 L3.22011988,1.88366398 C3.82012861,0.725391035 5.01065689,-0.000734387382 6.30775607,0 L12.6071179,0 C13.9151661,0 15.1129938,0.738620041 15.7086229,1.91012199 L18.4750865,7.36047232 C18.984583,8.36367192 18.984583,9.55134265 18.4750865,10.5530724 C18.4750865,10.5530724 15.7086229,16.0034227 15.7086229,16.0034227 L15.7086229,16.0034227 Z M17.2568206,7.98664526 L14.490357,2.53776481 C14.1283079,1.82560334 13.40129,1.37728704 12.6071179,1.37802108 L6.30775607,1.37802108 C5.51942343,1.37802108 4.79678517,1.81898884 4.43327622,2.52159603 L1.60841758,7.97121142 C1.28797496,8.58856502 1.28797496,9.32497967 1.60841758,9.94233326 L4.43327622,15.3912137 C4.7975151,16.0945558 5.52015336,16.5355227 6.30775607,16.5362576 L12.6071179,16.5362576 C13.40129,16.5362576 14.1283079,16.0886763 14.490357,15.3757799 L17.2568206,9.92542953 C17.5655842,9.31689527 17.5655842,8.59664941 17.2568206,7.98811515 L17.2568206,7.98664526 Z" id="Fill-1"></path>
                </g>
                <path d="M9.42823946,11.4961533 C10.8647567,11.4961533 12.0290073,10.3319028 12.0290073,8.89538554 C12.0290073,7.45959821 10.8647567,6.29534768 9.42823946,6.29534768 C7.99172219,6.29534768 6.82747167,7.45959821 6.82747167,8.89538554 C6.82747167,10.3319028 7.99172219,11.4961533 9.42823946,11.4961533 M9.42823946,12.8647866 C7.23623674,12.8655163 5.45883838,11.0881182 5.45883838,8.89611548 C5.45810866,6.70411276 7.23477687,4.92744456 9.42677958,4.92671462 L9.42823946,4.92671462 C11.6202422,4.92744456 13.3969104,6.70411276 13.3969104,8.89611548 C13.3961804,11.0881182 11.6195122,12.8640565 9.42823946,12.8647866" id="Fill-3" stroke-width="0.5"></path>
            </g>
        </g>
    </g>
</svg>