<?xml version="1.0" encoding="UTF-8"?>
<svg width="34px" height="34px" viewBox="0 0 34 34" version="1.1" xmlns="http://www.w3.org/2000/svg" xmlns:xlink="http://www.w3.org/1999/xlink">
    <title>多选</title>
    <g id="页面-1" stroke="none" stroke-width="1" fill="none" fill-rule="evenodd">
        <g id="单聊-延展功能" transform="translate(-212.000000, -468.000000)">
            <g id="多选" transform="translate(212.000000, 468.000000)">
                <rect id="矩形备份-8" x="0" y="0" width="34" height="34"></rect>
                <g id="duoxuan" transform="translate(7.000000, 7.000000)" fill="#333333" fill-rule="nonzero">
                    <path d="M18.5714286,0 L1.42857143,0 C0.642857143,0 0,0.642857143 0,1.42857143 L0,18.5714286 C0,19.3571429 0.642857143,20 1.42857143,20 L18.5714286,20 C19.3571429,20 20,19.3571429 20,18.5714286 L20,1.42857143 C20,0.642857143 19.3571429,0 18.5714286,0 Z M18.5714286,17.8571429 C18.5714286,18.2857143 18.2857143,18.5714286 17.8571429,18.5714286 L2.14285714,18.5714286 C1.71428571,18.5714286 1.42857143,18.2857143 1.42857143,17.8571429 L1.42857143,2.14285714 C1.42857143,1.71428571 1.71428571,1.42857143 2.14285714,1.42857143 L17.8571429,1.42857143 C18.2857143,1.42857143 18.5714286,1.71428571 18.5714286,2.14285714 L18.5714286,17.8571429 Z" id="形状"></path>
                    <path d="M14.1795918,7.01579141 L8.96326531,12.0220345 L6.39183673,9.5541682 C6.09795918,9.27212633 5.65714286,9.27212633 5.36326531,9.5541682 C5.06938776,9.83621006 5.06938776,10.2592729 5.36326531,10.5413147 L8.44897959,13.5027543 C8.59591837,13.6437752 8.74285714,13.7142857 8.96326531,13.7142857 C9.18367347,13.7142857 9.33061224,13.6437752 9.47755102,13.5027543 L15.2081633,8.00293794 C15.5020408,7.72089607 15.5020408,7.29783327 15.2081633,7.01579141 C14.9142857,6.80426001 14.4734694,6.80426001 14.1795918,7.01579141 L14.1795918,7.01579141 Z" id="路径"></path>
                </g>
            </g>
        </g>
    </g>
</svg>