<?xml version="1.0" encoding="UTF-8"?>
<svg width="34px" height="34px" viewBox="0 0 34 34" version="1.1" xmlns="http://www.w3.org/2000/svg" xmlns:xlink="http://www.w3.org/1999/xlink">
    <title>撤回</title>
    <g id="页面-1" stroke="none" stroke-width="1" fill="none" fill-rule="evenodd">
        <g id="单聊-延展功能" transform="translate(-120.000000, -426.000000)">
            <g id="撤回" transform="translate(120.000000, 426.000000)">
                <rect id="矩形备份-12" x="0" y="0" width="34" height="34"></rect>
                <g id="chehui" transform="translate(7.000000, 7.000000)" fill="#333333" fill-rule="nonzero">
                    <path d="M2.84638005,6.44318643 L5.79305778,9.20428221 C6.22494828,9.64083533 6.66939441,10.348387 6.23750388,10.784829 C5.80528004,11.221271 5.2159445,11.221271 4.78394287,10.784829 L0.269925927,6.21352104 C-0.0728531466,5.86818962 -0.0978532405,5.31530381 0.244925833,4.9699724 L4.78405399,0.327331522 C5.21605562,-0.109110507 5.80550228,-0.109110507 6.23750388,0.327331522 C6.66950547,0.76377355 6.22505938,1.47143629 5.79305778,1.90776717 L2.88471353,4.77652902 L12.8035285,4.77652902 C16.7934324,4.77652902 20,8.23695425 20,12.2175988 C20,16.1981322 16.7933213,20 12.8035285,20 L2.22537772,20 C1.61815323,20 1.10870686,19.7181127 1.10870686,19.1111161 C1.10870686,18.5040083 1.61815323,18.3332315 2.22537772,18.3332315 L12.7154171,18.3332315 C15.3915383,18.3332315 18.3329937,14.8873618 18.3329937,12.2174877 C18.3329937,9.54761361 15.3915382,6.44340864 12.7154171,6.44340864 L2.84638005,6.44340864 L2.84638005,6.44318643 Z" id="路径"></path>
                </g>
            </g>
        </g>
    </g>
</svg>