<?xml version="1.0" encoding="UTF-8"?>
<svg width="30px" height="30px" viewBox="0 0 30 30" version="1.1" xmlns="http://www.w3.org/2000/svg" xmlns:xlink="http://www.w3.org/1999/xlink">
    <title>搜索</title>
    <g id="搜索" stroke="none" stroke-width="1" fill="none" fill-rule="evenodd">
        <g id="sousuoxiao" transform="translate(4.000000, 4.000000)" fill="#BDBDBD" fill-rule="nonzero">
            <path d="M16.3726076,15.0867974 C16.4187744,15.1191091 16.4640179,15.1551135 16.5046448,15.1975804 L21.7344243,20.4256145 C22.0862156,20.7773505 22.0917556,21.3672699 21.7316542,21.7273146 C21.5597101,21.9011625 21.3255421,21.9992995 21.081008,22 C20.836474,22.0006858 20.6017533,21.9038778 20.4288261,21.7310074 L15.1990466,16.5020501 C15.1586004,16.46162 15.1221162,16.417413 15.0900928,16.3700337 C13.4403613,17.726965 11.3695896,18.4672727 9.23336771,18.4638323 C4.13377873,18.4638323 0,14.3307034 0,9.23191614 C0,4.13312886 4.13377873,0 9.23336771,0 C14.3329567,0 18.4667354,4.13312886 18.4667354,9.23191614 C18.4667354,11.4540384 17.6818991,13.4933686 16.3726076,15.0867974 Z M9.23336771,16.617449 C13.3129263,16.617449 16.6200619,13.3108333 16.6200619,9.23191613 C16.6200619,5.15299894 13.3129263,1.84638322 9.23336771,1.84638322 C5.15380917,1.84638322 1.84667354,5.15299894 1.84667354,9.23191613 C1.84667354,13.3108333 5.15380917,16.617449 9.23336771,16.617449 Z" id="形状"></path>
        </g>
    </g>
</svg>