<?xml version="1.0" encoding="UTF-8"?>
<svg width="30px" height="30px" viewBox="0 0 30 30" version="1.1" xmlns="http://www.w3.org/2000/svg" xmlns:xlink="http://www.w3.org/1999/xlink">
    <title>剧情详情-选择角色-未勾选</title>
    <g id="剧情详情-选择角色-未勾选" stroke="none" stroke-width="1" fill="none" fill-rule="evenodd">
        <path d="M15,7 C10.6,7 7,10.6 7,15 C7,19.4 10.6,23 15,23 C19.4,23 23,19.4 23,15 C23,10.6 19.4,7 15,7 Z" id="路径备份-2" fill="#EEEEEE" fill-rule="nonzero"></path>
        <path d="M20.1,12.8 L14.1,18.8 C14,18.9 13.7,19 13.5,19 C13.3,19 13.1,18.9 12.9,18.8 L9.3,15.2 C9,14.9 9,14.3 9.3,14 C9.6,13.7 10.2,13.7 10.5,14 L13.5,17 L18.9,11.6 C19.2,11.3 19.8,11.3 20.1,11.6 C20.5,11.9 20.5,12.4 20.1,12.8 Z" id="路径备份-3" fill="#FFFFFF" fill-rule="nonzero"></path>
    </g>
</svg>