<?xml version="1.0" encoding="UTF-8"?>
<svg width="170px" height="151px" viewBox="0 0 170 151" version="1.1" xmlns="http://www.w3.org/2000/svg" xmlns:xlink="http://www.w3.org/1999/xlink">
    <title>搜索-空态</title>
    <defs>
        <linearGradient x1="7.21644966e-14%" y1="50%" x2="99.5137675%" y2="50%" id="linearGradient-1">
            <stop stop-color="#FF9E9E" offset="0%"></stop>
            <stop stop-color="#FF3131" offset="100%"></stop>
        </linearGradient>
    </defs>
    <g id="页面-1" stroke="none" stroke-width="1" fill="none" fill-rule="evenodd">
        <g id="搜索-空态" transform="translate(1.995255, -0.000000)">
            <path d="M79.3557713,10.5933574 C68.4256712,14.1564634 56.4909209,12.8389632 43.5515202,6.6408567 C24.1424177,-2.65630304 -5.38240225,17.9417145 7.08583455,41.524968 C19.5540717,65.1082215 39.6908339,116.207461 81.2402498,112.192389 C122.789659,108.177305 124.126096,84.0659522 139.851746,65.9536161 C155.57741,47.8412832 163.102827,21.6691414 139.851746,6.6408567 C124.351035,-3.37800027 104.18571,-2.06050005 79.3557713,10.5933574 Z" id="路径-43" fill="url(#linearGradient-1)" opacity="0.12"></path>
            <path d="M31.1878681,41.9245894 C31.4618848,41.3383315 32.1592753,41.08521 32.7455332,41.3592268 C32.9941326,41.475422 33.1940649,41.6751838 33.3104722,41.923684 L33.3110617,41.9249424 C33.9947939,43.3845375 34.1078503,45.047092 33.6280083,46.585812 L32.4318331,50.421614 C32.4007748,50.5212094 32.294859,50.5767696 32.1952637,50.5457113 C32.1360388,50.5272423 32.0896577,50.4808703 32.0711772,50.421649 L30.8734958,46.5836348 C30.3935901,45.0457594 30.5057148,43.384054 31.1878681,41.9245894 Z" id="矩形" fill="#000000" fill-rule="nonzero" transform="translate(32.250727, 45.327852) rotate(-96.000000) translate(-32.250727, -45.327852) "></path>
            <path d="M33.8327735,37.8880959 C34.0670015,37.399452 34.653005,37.1932071 35.1416489,37.4274352 C35.3425954,37.5237575 35.5047677,37.6856139 35.6014814,37.8863723 L35.6031402,37.8898156 C36.1732271,39.0732019 36.2681553,40.4300599 35.8683989,41.6812982 L34.9054304,44.695392 C34.8736805,44.794769 34.7673812,44.8495917 34.6680041,44.8178419 C34.6098816,44.7992724 34.5643081,44.7537715 34.545646,44.6956786 L33.5746958,41.6732255 C33.1736819,40.4249167 33.2660341,39.0704214 33.8327735,37.8880959 Z" id="矩形" fill="#000000" fill-rule="nonzero" transform="translate(34.720580, 40.651981) rotate(-51.000001) translate(-34.720580, -40.651981) "></path>
            <path d="M115.976675,101.731602 C157.06015,105.103658 165.187093,50.7450883 140.185574,27.3606482 C115.184056,3.97620813 108.573906,47.6280676 56.5895272,36.4900432 C46.4907175,34.8147905 32.9597715,20.8538254 32.9597715,15.0048786 C32.9597715,11.7055921 35.2651165,11.1207905 37.8863849,11.1207905 C40.5076533,11.1207905 41.7204771,12.7429993 41.7204771,15.0048786 C41.7204771,17.2667581 39.8109015,28.2951458 18.9017426,20.5623565" id="路径-44" stroke="#000000" stroke-width="1.41268289" stroke-dasharray="1.412682890892029,1.412682890892029" fill-rule="nonzero"></path>
            <g id="编组-36" transform="translate(0.000000, 4.063018)" fill-rule="nonzero">
                <ellipse id="椭圆形" fill-opacity="0.3" fill="#FFB84D" cx="13.6093388" cy="11.6607102" rx="11.6926666" ry="11.6607102"></ellipse>
                <path d="M1.90633641,10.2731225 C0.31510455,10.8352629 -0.613137079,11.5127409 -0.612594361,12.2425125 C-0.611140285,14.1965731 6.04888611,15.7856022 14.2629908,15.7917261 C22.4770965,15.7978142 29.134765,14.2186852 29.1332505,12.2646248 C29.1327855,11.5584082 28.2625371,10.899871 26.7635309,10.3465052" id="路径" stroke="#FFFFFF" stroke-width="2.706341" transform="translate(14.260328, 13.032424) rotate(-30.000000) translate(-14.260328, -13.032424) "></path>
                <ellipse id="椭圆形" stroke="#FFFFFF" stroke-width="0.706341445" cx="8.98853506" cy="9.98390878" rx="2.48353642" ry="2.47844962"></ellipse>
            </g>
            <g id="编组-35" transform="translate(98.163971, 77.380500) rotate(-35.999999) translate(-98.163971, -77.380500) translate(58.765021, 16.228876)" fill-rule="nonzero" stroke="#000000">
                <rect id="矩形" stroke-width="0.647685349" fill="#000000" x="37.8802201" y="71.8547341" width="2.62545171" height="38.4079753"></rect>
                <rect id="矩形" stroke-width="0.647685349" fill="#FFFFFF" x="35.2901246" y="83.4543358" width="7.85695706" height="38.5250691"></rect>
                <ellipse id="椭圆形" stroke-width="1.2953707" cx="39.3989504" cy="39.1499802" rx="40.0466357" ry="39.7976655"></ellipse>
                <path d="M39.3989504,0.323842674 C50.1894794,0.323842674 59.9585613,4.6697756 67.029951,11.6964797 C74.1005953,18.7224432 78.4740581,28.428672 78.4740581,39.1499802 C78.4740581,49.8712884 74.1005953,59.5775172 67.029951,66.6034806 C59.9585613,73.6301848 50.1894794,77.9761177 39.3989504,77.9761177 C28.6084214,77.9761177 18.8393395,73.6301848 11.7679498,66.6034806 C4.69730544,59.5775172 0.323842674,49.8712884 0.323842674,39.1499802 C0.323842674,28.428672 4.69730544,18.7224432 11.7679498,11.6964797 C18.8393395,4.6697756 28.6084214,0.323842674 39.3989504,0.323842674 Z M39.3989523,9.38276469 C31.1274926,9.38276469 23.6391825,12.7144044 18.2186775,18.1006559 C12.7974271,23.487648 9.44449235,30.9297577 9.44449235,39.1499811 C9.44449235,47.3702046 12.7974271,54.8123143 18.2186775,60.1993064 C23.6391825,65.5855579 31.1274926,68.9171976 39.3989523,68.9171976 C47.670412,68.9171976 55.1587221,65.5855579 60.5792271,60.1993064 C66.0004775,54.8123143 69.3534123,47.3702046 69.3534123,39.1499811 C69.3534123,30.9297577 66.0004775,23.487648 60.5792271,18.1006559 C55.1587221,12.7144044 47.670412,9.38276469 39.3989523,9.38276469 Z" id="形状结合" stroke-width="0.647685349" fill="#FFFFFF"></path>
            </g>
            <g id="?" transform="translate(84.453890, 59.032490) rotate(-35.999999) translate(-84.453890, -59.032490) translate(74.860688, 42.755744)" fill="#F55850" fill-opacity="0.5" fill-rule="nonzero">
                <path d="M9.02144494,26.9400276 C10.6240286,26.9400276 11.9289897,28.1363397 11.9289897,29.7467597 C11.9289897,31.35718 10.6240286,32.5534919 9.02144494,32.5534919 C7.41886117,32.5534919 6.11390017,31.35718 6.11390017,29.7467597 C6.11390017,28.1363397 7.41886117,26.9400276 9.02144494,26.9400276 Z M9.73116004,7.45044596e-13 C14.6304882,7.45044596e-13 19.1864038,2.59967816 19.1864038,8.02909476 C19.1864038,11.8941024 16.8969988,13.7805954 14.7220644,15.4830389 C12.0892479,17.530574 11.1048036,18.3127764 11.1048036,20.9354611 L11.0986953,21.0639677 C11.0340375,21.7406171 10.4640464,22.2698088 9.7704559,22.2698088 L8.52665332,22.2698088 C7.53183361,22.2698088 6.72183658,21.4700798 6.7091457,20.475341 C6.61756947,17.1394718 8.65513951,15.1379493 10.990333,13.3434806 C13.1194808,11.6870487 14.470229,10.6287727 14.470229,8.28216062 C14.470229,5.1303384 12.0892479,3.86500816 9.50221994,3.86500816 C6.06811205,3.86500816 4.37395217,6.14260231 4.35105787,9.11037658 L0.00118800158,9.11037658 C-0.0903882074,2.25458809 5.12945588,7.45044596e-13 9.73116004,7.45044596e-13 Z" id="形状"></path>
            </g>
        </g>
    </g>
</svg>