<?xml version="1.0" encoding="UTF-8"?>
<svg width="16px" height="16px" viewBox="0 0 16 16" version="1.1" xmlns="http://www.w3.org/2000/svg" xmlns:xlink="http://www.w3.org/1999/xlink">
    <title>VIP</title>
    <g id="VIP" stroke="none" stroke-width="1" fill="none" fill-rule="evenodd">
        <g id="icon-vip备份-3" transform="translate(1.000000, 2.000000)" fill="#FFB648" fill-rule="nonzero">
            <path d="M9.75396187,7.33310304 L9.75396187,12.8333333 L10.9166536,12.8333333 L10.9166536,10.836034 C12.7750144,10.8634384 13.7171677,10.7812251 13.9782463,9.20466441 C14.0609482,8.74362518 13.8955444,8.22616505 13.6896004,7.94244861 C13.0766332,7.11709165 11.2328668,7.32181886 9.75396187,7.33310304 L9.75396187,7.33310304 Z M10.9166536,9.90105934 L10.9166536,8.29709418 C11.7793482,8.26968975 12.6923125,8.17458026 12.8431219,8.86775113 C13.0912276,10.0267973 11.8863742,9.92846378 10.9166536,9.90105934 Z M7.51452358,7.36050747 C7.52749643,9.18048402 7.52749643,11.0133568 7.54209088,12.8333333 L8.67721529,12.8333333 L8.67721529,7.33310304 C8.29451621,7.3492233 7.91019551,7.3492233 7.51452358,7.36050747 Z M9.71504332,0 C7.92316836,1.77806389 6.13615822,3.54323159 4.33131041,5.32451954 L4.33131041,0 L0,0 C0.012972851,0.353033537 0.012972851,0.718963278 0.0275673024,1.07360885 L1.07998979,1.07360885 L1.07998979,12.8252732 C5.38373289,8.54373404 9.67450317,4.27831513 13.9782463,0 L9.71504332,0 L9.71504332,0 Z" id="形状"></path>
        </g>
    </g>
</svg>