<?xml version="1.0" standalone="no"?><!DOCTYPE svg PUBLIC "-//W3C//DTD SVG 1.1//EN" "http://www.w3.org/Graphics/SVG/1.1/DTD/svg11.dtd">
<svg t="1712737027322"
    class="icon"
    viewBox="0 0 1024 1024"
    version="1.1"
    xmlns="http://www.w3.org/2000/svg"
    p-id="2947"
    width="48"
    height="48">
    <path
        d="M128 464h768v496H128z"
        fill="#AA6E50"
        p-id="2948"></path>
    <path
        d="M896 976H128a16 16 0 0 1-16-16V464a16 16 0 0 1 16-16h768a16 16 0 0 1 16 16v496a16 16 0 0 1-16 16z m-752-32h736V480H144z"
        fill="#222222"
        p-id="2949"></path>
    <path
        d="M168 566.19m-88 0a88 88 0 1 0 176 0 88 88 0 1 0-176 0Z"
        fill="#FFCEBF"
        p-id="2950"></path>
    <path
        d="M168 670.19a104 104 0 1 1 104-104 104.11 104.11 0 0 1-104 104z m0-176a72 72 0 1 0 72 72 72.08 72.08 0 0 0-72-72z"
        fill="#222222"
        p-id="2951"></path>
    <path
        d="M856 566.19m-88 0a88 88 0 1 0 176 0 88 88 0 1 0-176 0Z"
        fill="#FFCEBF"
        p-id="2952"></path>
    <path
        d="M856 670.19a104 104 0 1 1 104-104 104.11 104.11 0 0 1-104 104z m0-176a72 72 0 1 0 72 72 72.08 72.08 0 0 0-72-72z"
        fill="#222222"
        p-id="2953"></path>
    <path
        d="M862.72 416L864 585c0 207.09-157.6 375-352 375S160 792.13 160 585l1.28-169S176 96 512 96s350.72 320 350.72 320z"
        fill="#FFCEBF"
        p-id="2954"></path>
    <path
        d="M512 976a347.31 347.31 0 0 1-143.59-30.88 366.42 366.42 0 0 1-117-84 392.06 392.06 0 0 1-78.62-124.22A409.77 409.77 0 0 1 144 585v-0.12l1.28-169.35v-0.31c0.16-3.42 4.4-84.79 51.45-167.19 27.87-48.8 65-87.72 110.31-115.69C363.39 97.62 432.35 80 512 80s148.61 17.62 205 52.38c45.33 28 82.44 66.89 110.31 115.69 47 82.4 51.29 163.77 51.45 167.19v0.62L880 585a409.77 409.77 0 0 1-28.79 151.9 392.06 392.06 0 0 1-78.64 124.23 366.42 366.42 0 0 1-117 84A347.31 347.31 0 0 1 512 976zM176 585.11C176 783 326.75 944 512 944s336-161 336-358.89l-1.27-168.61c-0.3-5-5.49-80-47.84-153.58C741.24 162.78 644.71 112 512 112s-229.24 50.78-286.89 150.92c-42.35 73.58-47.54 148.58-47.84 153.58z"
        fill="#222222"
        p-id="2955"></path>
    <path
        d="M192 654.19a56 32 0 1 0 112 0 56 32 0 1 0-112 0Z"
        fill="#FFA096"
        p-id="2956"></path>
    <path
        d="M720 654.19a56 32 0 1 0 112 0 56 32 0 1 0-112 0Z"
        fill="#FFA096"
        p-id="2957"></path>
    <path
        d="M896 464c0-231-153.48-400-384-400S128 233 128 464c0 0 240 32 384-160 144 192 384 160 384 160z"
        fill="#AA6E50"
        p-id="2958"></path>
    <path
        d="M856.22 482a509.11 509.11 0 0 1-101.43-10.36C707.88 462.05 664.18 446 624.92 424A401.72 401.72 0 0 1 512 329.82 401.72 401.72 0 0 1 399.08 424c-39.26 22.05-83 38.1-129.87 47.72-79.73 16.36-140.77 8.53-143.32 8.19A16 16 0 0 1 112 464c0-58.87 9.62-114.56 28.59-165.52 18.74-50.34 46.11-94.78 81.33-132.07a366.43 366.43 0 0 1 126.69-87.16C398.49 58.51 453.46 48 512 48s113.51 10.51 163.39 31.25a366.43 366.43 0 0 1 126.69 87.16c35.22 37.29 62.59 81.73 81.33 132.07 19 51 28.59 106.65 28.59 165.52a16 16 0 0 1-13.89 15.86c-1.26 0.14-16.83 2.14-41.89 2.14zM896 464z m-751.79-14.69a470.51 470.51 0 0 0 119.67-9.21c99.06-20.57 178.24-69.59 235.32-145.7a16 16 0 0 1 25.6 0c57.08 76.11 136.26 125.13 235.33 145.7a469.89 469.89 0 0 0 119.66 9.21C873.37 231.09 724 80 512 80S150.63 231.1 144.21 449.31z"
        fill="#222222"
        p-id="2959"></path>
    <path
        d="M353.94 503.43l-13.25 13.25a48.16 48.16 0 0 0-4.69-1.94V496a16 16 0 0 0-32 0v18.74a48.16 48.16 0 0 0-4.69 1.94l-13.25-13.25a16 16 0 0 0-22.63 22.63l13.25 13.25a48 48 0 1 0 86.64 0l13.25-13.25a16 16 0 0 0-22.63-22.63zM760.57 503.43a16 16 0 0 0-22.63 0l-13.25 13.25a48.16 48.16 0 0 0-4.69-1.94V496a16 16 0 0 0-32 0v18.74a48.16 48.16 0 0 0-4.69 1.94l-13.25-13.25a16 16 0 1 0-22.63 22.63l13.25 13.25a48 48 0 1 0 86.64 0l13.25-13.25a16 16 0 0 0 0-22.63zM512 848c-67 0-101.71-17-103.16-17.69a16 16 0 0 1 14.24-28.66c0.7 0.35 30.68 14.35 88.92 14.35 58.65 0 88.64-14.21 88.93-14.35a16 16 0 0 1 14.23 28.66C613.71 831 579 848 512 848z"
        fill="#222222"
        p-id="2960"></path>
</svg>