<?xml version="1.0" standalone="no"?><!DOCTYPE svg PUBLIC "-//W3C//DTD SVG 1.1//EN" "http://www.w3.org/Graphics/SVG/1.1/DTD/svg11.dtd"><svg t="1706937876926" class="icon" viewBox="0 0 1024 1024" version="1.1" xmlns="http://www.w3.org/2000/svg" p-id="6003" xmlns:xlink="http://www.w3.org/1999/xlink" width="48" height="48"><path d="M634.634667 145.226667c23.498667 0 44.138667 15.434667 50.592 37.824l24.181333 66.474666h144.64c29.056 0 52.618667 23.349333 52.618667 52.16v495.392c0 28.8-23.562667 52.16-52.618667 52.16H169.952c-29.056 0-52.618667-23.36-52.618667-52.16V301.674667c0-28.8 23.562667-52.149333 52.618667-52.149334h144.64l24.181333-66.474666c6.453333-22.389333 27.093333-37.824 50.592-37.824h245.269334z m-2.592 32H391.957333c-7.68 0-14.4 5.194667-16.512 12.725333l-27.232 79.765333a17.226667 17.226667 0 0 1-16.501333 12.714667H177.173333c-9.493333 0-17.173333 7.850667-17.173333 17.536v499.733333c0 9.674667 7.68 17.525333 17.173333 17.525334h669.653334c9.493333 0 17.173333-7.850667 17.173333-17.525334v-499.733333c0-9.685333-7.68-17.536-17.173333-17.536H692.288c-7.658667 0-14.4-5.184-16.501333-12.714667l-27.232-79.765333a17.226667 17.226667 0 0 0-16.512-12.725333z m57.013333 362.026666a19.690667 19.690667 0 0 1 19.349333 20.042667c-1.898667 108.736-91.594667 195.349333-200.330666 193.450667a196.629333 196.629333 0 0 1-138.346667-60.192l-0.650667 38.08a19.690667 19.690667 0 1 1-39.381333-0.693334l1.632-93.696a19.690667 19.690667 0 0 1 21.12-19.296l92.693333 6.72a19.690667 19.690667 0 0 1-2.848 39.274667l-49.568-3.573333a157.301333 157.301333 0 0 0 116.032 53.994666c86.997333 1.525333 158.752-67.765333 160.266667-154.762666a19.690667 19.690667 0 0 1 20.032-19.338667z m-18.005333-204.48c10.88 0 19.690667 8.810667 19.690666 19.690667v93.706667c0 11.306667-9.493333 20.277333-20.768 19.658666l-92.8-5.088a19.690667 19.690667 0 0 1 2.154667-39.328l49.642667 2.730667A157.301333 157.301333 0 0 0 512 374.154667c-87.008 0-157.546667 70.528-157.546667 157.546666a19.690667 19.690667 0 1 1-39.381333 0c0-108.768 88.170667-196.928 196.928-196.928 53.461333 0 103.146667 21.493333 139.370667 57.770667v-38.08c0-10.88 8.810667-19.690667 19.68-19.690667z" fill="#000000" p-id="6004"></path></svg>