<?xml version="1.0" standalone="no"?><!DOCTYPE svg PUBLIC "-//W3C//DTD SVG 1.1//EN" "http://www.w3.org/Graphics/SVG/1.1/DTD/svg11.dtd"><svg t="1710647808510" class="icon" viewBox="0 0 1032 1024" version="1.1" xmlns="http://www.w3.org/2000/svg" p-id="12950" xmlns:xlink="http://www.w3.org/1999/xlink" width="48.375" height="48"><path d="M933.181519 817.612403 754.108527 817.612403 754.108527 769.984496 940.182822 769.984496 933.181519 817.612403ZM918.004093 920.806202 754.108527 920.806202 754.108527 873.178295 925.005395 873.178295 918.004093 920.806202ZM325.457364 888.030264 325.457364 976.372093 484.217054 976.372093C497.370295 976.372093 508.031008 987.032806 508.031008 1000.186047 508.031008 1013.339287 497.370295 1024 484.217054 1024L119.069767 1024C105.916527 1024 95.255814 1013.339287 95.255814 1000.186047 95.255814 987.032806 105.916527 976.372093 119.069767 976.372093L277.829457 976.372093 277.829457 888.030264C122.379907 875.877209 0 745.980031 0 587.410853L0 500.093023 0 492.155039C0 483.383566 7.104496 476.27907 15.875969 476.27907L31.751938 476.27907C40.523411 476.27907 47.627907 483.383566 47.627907 492.155039L47.627907 500.093023 47.627907 579.472868C47.627907 719.760868 161.355411 833.488372 301.643411 833.488372 441.931411 833.488372 555.658915 719.760868 555.658915 579.472868L555.658915 500.093023 555.658915 492.155039C555.658915 483.383566 562.763411 476.27907 571.534884 476.27907L587.410853 476.27907C596.182326 476.27907 603.286822 483.383566 603.286822 492.155039L603.286822 500.093023 603.286822 587.410853C603.286822 745.980031 480.906915 875.877209 325.457364 888.030264ZM301.643411 777.922481C192.043659 777.922481 103.193798 689.07262 103.193798 579.472868L103.193798 198.449612C103.193798 88.84986 192.043659 0 301.643411 0 411.243163 0 500.093023 88.84986 500.093023 198.449612L500.093023 579.472868C500.093023 689.07262 411.243163 777.922481 301.643411 777.922481ZM902.826667 1024 754.108527 1024 754.108527 976.372093 909.835907 976.372093 902.826667 1024Z" p-id="12951" fill="#87a7d6"></path></svg>