<?xml version="1.0" standalone="no"?><!DOCTYPE svg PUBLIC "-//W3C//DTD SVG 1.1//EN" "http://www.w3.org/Graphics/SVG/1.1/DTD/svg11.dtd"><svg t="1706942405543" class="icon" viewBox="0 0 1024 1024" version="1.1" xmlns="http://www.w3.org/2000/svg" p-id="4039" xmlns:xlink="http://www.w3.org/1999/xlink" width="48" height="48"><path d="M64 362.67v298.67h198.33L512 911V113L262.33 362.67H64zM736 512c0-43.56-11.28-83.22-33.83-119-22.56-35.78-52.5-63-89.83-81.67v399c37.33-17.11 67.28-43.55 89.83-79.33C724.72 595.22 736 555.56 736 512zM612.33 75.67v102.67c71.56 21.78 130.67 63.39 177.33 124.83 46.67 61.44 70 131.06 70 208.83 0 77.78-23.33 147.39-70 208.83C743 782.28 683.89 823.89 612.33 845.66v102.67C677.67 932.78 736.78 904 789.67 862s94.5-93.33 124.83-154S960 582 960 512s-15.17-135.33-45.5-196c-30.34-60.67-71.94-112-124.83-154s-112-70.78-177.34-86.33z" p-id="4040"></path></svg>