<?xml version="1.0" standalone="no"?><!DOCTYPE svg PUBLIC "-//W3C//DTD SVG 1.1//EN" "http://www.w3.org/Graphics/SVG/1.1/DTD/svg11.dtd"><svg t="1706941721578" class="icon" viewBox="0 0 1024 1024" version="1.1" xmlns="http://www.w3.org/2000/svg" p-id="7818" xmlns:xlink="http://www.w3.org/1999/xlink" width="48" height="48"><path d="M512 512m-512 0a512 512 0 1 0 1024 0 512 512 0 1 0-1024 0Z" fill="#12B458" p-id="7819"></path><path d="M767.744 693.869714a35.364571 35.364571 0 0 1-35.474286 35.437715C495.104 728.832 301.897143 535.625143 300.982857 297.947429c0-19.602286 15.762286-35.401143 35.401143-35.437715l86.308571 0.365715c19.492571-0.073143 35.474286 15.725714 35.620572 35.218285 0.182857 28.818286 4.827429 57.490286 13.714286 84.992a34.998857 34.998857 0 0 1-8.557715 36.022857l-48.091428 48.566858a366.665143 366.665143 0 0 0 147.382857 147.565714l48.054857-48.091429a35.84 35.84 0 0 1 36.205714-8.557714c27.392 9.033143 55.954286 13.641143 84.699429 13.604571 19.638857 0.219429 35.547429 16.091429 35.693714 35.730286l0.365714 85.942857z" fill="#FFFFFF" p-id="7820"></path></svg>