<?xml version="1.0" standalone="no"?><!DOCTYPE svg PUBLIC "-//W3C//DTD SVG 1.1//EN" "http://www.w3.org/Graphics/SVG/1.1/DTD/svg11.dtd"><svg t="1704629593533" class="icon" viewBox="0 0 1024 1024" version="1.1" xmlns="http://www.w3.org/2000/svg" p-id="23515" xmlns:xlink="http://www.w3.org/1999/xlink" width="48" height="48"><path d="M512 0c282.763636 0 512 229.236364 512 512s-229.236364 512-512 512S0 794.763636 0 512 229.236364 0 512 0z m0 69.818182a442.181818 442.181818 0 1 0 0 884.363636 442.181818 442.181818 0 0 0 0-884.363636z m197.632 639.674182l49.338182 49.338181a349.090909 349.090909 0 0 1-493.661091 0l49.338182-49.338181a279.272727 279.272727 0 0 0 394.984727 0z m3.816727-445.486546l49.384728 49.338182L680.541091 395.636364l82.292364 82.292363-49.338182 49.338182L581.818182 395.636364l131.630545-131.630546zM349.090909 279.272727v232.727273H279.272727V279.272727h69.818182z" fill="#000000" fill-opacity=".85" p-id="23516"></path></svg>