<?xml version="1.0" standalone="no"?><!DOCTYPE svg PUBLIC "-//W3C//DTD SVG 1.1//EN" "http://www.w3.org/Graphics/SVG/1.1/DTD/svg11.dtd"><svg t="1732184683383" class="icon" viewBox="0 0 1024 1024" version="1.1" xmlns="http://www.w3.org/2000/svg" p-id="4150" xmlns:xlink="http://www.w3.org/1999/xlink" width="200" height="200"><path d="M200.832 133.525333c25.088-17.152 50.112 11.093333 50.112 11.093334s119.402667 150.890667 133.546667 172.245333c14.122667 21.376-5.610667 38.933333-5.610667 38.933333l-55.68 38.912s28.672 100.949333 111.274667 183.381334c86.784 86.677333 183.68 111.082667 183.68 111.082666s24.618667-41.258667 38.997333-55.594666c14.378667-14.357333 38.976-0.021333 38.976-0.021334s178.965333 134.186667 189.226667 144.426667c10.282667 10.24 16.384 16.341333 2.773333 41.685333s-48.128 59.136-52.906667 63.957334c-4.842667 4.778667-179.413333 82.282667-481.536-219.306667C61.973333 373.077333 134.72 199.744 139.349333 189.589333l0.213334-0.469333A317.098667 317.098667 0 0 1 200.832 133.546667z m609.792 106.517334c11.797333 0 21.376 9.728 21.376 21.866666-0.170667 102.058667-74.794667 185.984-170.666667 196.970667v44.757333h74.026667c12.16 0 22.037333 9.728 22.037333 21.738667 0 11.989333-9.877333 21.717333-22.016 21.717333h-190.762666c-12.16 0-21.994667-9.728-21.994667-21.717333 0-12.010667 9.856-21.76 21.994667-21.76h74.069333V458.88c-95.893333-10.965333-170.517333-94.912-170.688-197.098667a21.546667 21.546667 0 0 1 21.397333-21.738666c11.797333 0 21.376 9.728 21.44 21.738666v0.597334c0 85.162667 66.773333 154.197333 149.162667 154.197333 82.368 0 149.162667-69.034667 149.162667-154.197333v-0.597334a21.674667 21.674667 0 0 1 21.461333-21.738666zM640 42.666667c64.853333 0 117.397333 53.589333 117.397333 119.68v101.973333c0 66.090667-52.565333 119.68-117.397333 119.68s-117.376-53.589333-117.376-119.68V162.346667C522.624 96.256 575.168 42.666667 640 42.666667z" fill="#333333" p-id="4151"></path></svg>