<?xml version="1.0" standalone="no"?><!DOCTYPE svg PUBLIC "-//W3C//DTD SVG 1.1//EN" "http://www.w3.org/Graphics/SVG/1.1/DTD/svg11.dtd"><svg t="1704628386129" class="icon" viewBox="0 0 1024 1024" version="1.1" xmlns="http://www.w3.org/2000/svg" p-id="7884" xmlns:xlink="http://www.w3.org/1999/xlink" width="48" height="48"><path d="M512 1024a111.749565 111.749565 0 0 1-111.88313-111.705043A111.749565 111.749565 0 0 1 512 800.634435a111.749565 111.749565 0 0 1 111.88313 111.660522A111.749565 111.749565 0 0 1 512 1024z m0-313.744696c-30.72 0-100.173913-48.88487-100.173913-109.256347L356.173913 89.043478C356.173913 28.672 450.515478 0 512 0 573.484522 0 667.826087 28.672 667.826087 89.043478L612.173913 600.998957c0 60.371478-69.453913 109.256348-100.173913 109.256347z" fill="#FF0000" p-id="7885"></path></svg>