<?xml version="1.0" standalone="no"?><!DOCTYPE svg PUBLIC "-//W3C//DTD SVG 1.1//EN" "http://www.w3.org/Graphics/SVG/1.1/DTD/svg11.dtd"><svg t="1706937501068" class="icon" viewBox="0 0 1024 1024" version="1.1" xmlns="http://www.w3.org/2000/svg" p-id="4199" xmlns:xlink="http://www.w3.org/1999/xlink" width="48" height="48"><path d="M512 512m-512 0a512 512 0 1 0 1024 0 512 512 0 1 0-1024 0Z" fill="#F5222D" p-id="4200"></path><path d="M281.6896 584.896a54.8864 54.8864 0 0 1-45.7216-39.2576 266.6752 266.6752 0 0 1-1.5616-50.5856c1.216-40.192 55.872-70.1184 80.8064-83.6096s109.7344-33.6256 203.3536-37.6192a479.4112 479.4112 0 0 1 220.0448 47.3728c42.0224 20.416 47.232 38.08 54.2336 52.4288s9.2672 30.3232 0.9728 63.232-24.9344 31.616-33.1008 34.24a167.4624 167.4624 0 0 1-79.2576-4.3904c-27.4688-10.752-36.3264-26.8544-36.1344-38.8608a245.9648 245.9648 0 0 1 0.3712-30.5536c1.408-8.704-2.7904-14.8864-13.696-23.9232s-86.1056-10.752-100.4288-10.5984-110.016 0.128-129.856 13.0304-18.3808 26.0096-18.176 29.696a194.56 194.56 0 0 1 1.8176 32.2176 52.9408 52.9408 0 0 1-30.1312 33.1776c-8.256 1.5872-45.632 16.128-73.536 14.0032z" fill="#FFFFFF" p-id="4201"></path></svg>